<svg xmlns="http://www.w3.org/2000/svg" xmlns:xlink="http://www.w3.org/1999/xlink" width="150" zoomAndPan="magnify" viewBox="0 0 112.5 112.499997" height="150" preserveAspectRatio="xMidYMid meet" version="1.0"><defs><clipPath id="98aef689ae"><path d="M 11.199219 0 L 104.535156 0 L 104.535156 112 L 11.199219 112 Z M 11.199219 0 " clip-rule="nonzero"/></clipPath></defs><g clip-path="url(#98aef689ae)"><path fill="currentColor" d="M 11.199219 72.359375 C 11.199219 61.742188 14.070312 53.132812 18.660156 46.53125 C 18.660156 59.589844 21.816406 64.179688 28.707031 64.179688 C 33.296875 64.179688 38.03125 60.734375 38.03125 54.851562 C 38.03125 49.542969 34.445312 39.929688 34.445312 29.601562 C 34.445312 19.269531 37.886719 8.21875 51.949219 0.0429688 C 48.792969 8.363281 47.5 15.394531 47.5 21.132812 C 47.5 36.34375 56.683594 43.230469 64.863281 43.230469 C 71.464844 43.230469 78.351562 38.925781 78.351562 26.441406 C 82.800781 31.320312 84.808594 36.917969 84.808594 42.511719 C 84.808594 51.410156 79.929688 59.300781 79.929688 66.476562 C 79.929688 72.359375 84.664062 75.800781 89.257812 75.800781 C 97.433594 75.800781 99.875 68.484375 99.875 56.429688 C 102.3125 60.59375 104.464844 68.769531 104.464844 75.800781 C 104.464844 96.75 84.664062 111.960938 62.566406 111.960938 C 81.222656 104.929688 84.664062 95.601562 84.664062 85.128906 C 80.074219 93.308594 75.339844 94.453125 73.042969 94.453125 C 58.980469 94.453125 74.191406 67.625 49.652344 48.96875 C 53.671875 57.578125 55.25 65.039062 55.25 71.066406 C 55.25 83.980469 48.21875 91.011719 41.476562 91.011719 C 35.734375 91.011719 29.996094 86.417969 27.699219 76.664062 C 27.699219 90.292969 31.71875 103.207031 49.652344 111.960938 C 21.675781 107.367188 11.199219 89.863281 11.199219 72.359375 Z M 11.199219 72.359375 " fill-opacity="1" fill-rule="nonzero"/></g></svg>