<svg xmlns="http://www.w3.org/2000/svg" xmlns:xlink="http://www.w3.org/1999/xlink" width="150" zoomAndPan="magnify" viewBox="0 0 112.5 112.499997" height="150" preserveAspectRatio="xMidYMid meet" version="1.0"><defs><clipPath id="e05e6a0c3a"><path d="M 0 1.628906 L 112 1.628906 L 112 110.644531 L 0 110.644531 Z M 0 1.628906 " clip-rule="nonzero"/></clipPath></defs><g clip-path="url(#e05e6a0c3a)"><path fill="#205375" d="M 111.757812 41.789062 C 111.757812 41.765625 111.757812 41.765625 111.757812 41.789062 C 104.964844 18.148438 82.042969 1.683594 55.988281 1.683594 C 29.894531 1.683594 6.949219 18.195312 0.199219 41.855469 C 0 42.546875 0.3125 43.285156 0.917969 43.640625 C 4.511719 45.71875 8.535156 46.746094 12.554688 46.746094 C 12.914062 46.746094 13.25 46.726562 13.605469 46.703125 L 54.671875 109.597656 C 54.671875 109.617188 54.695312 109.617188 54.695312 109.617188 C 54.714844 109.664062 54.761719 109.707031 54.804688 109.753906 C 54.828125 109.773438 54.851562 109.796875 54.871094 109.820312 C 54.894531 109.84375 54.917969 109.863281 54.917969 109.863281 C 54.941406 109.886719 54.960938 109.886719 54.960938 109.910156 C 54.984375 109.929688 55.007812 109.929688 55.007812 109.953125 C 55.027344 109.976562 55.027344 109.976562 55.050781 110 C 55.097656 110.042969 55.164062 110.066406 55.207031 110.085938 C 55.230469 110.085938 55.230469 110.109375 55.253906 110.109375 C 55.253906 110.109375 55.273438 110.109375 55.273438 110.132812 C 55.273438 110.132812 55.273438 110.132812 55.296875 110.132812 C 55.320312 110.132812 55.320312 110.132812 55.34375 110.15625 C 55.410156 110.175781 55.5 110.222656 55.566406 110.242188 C 55.585938 110.242188 55.585938 110.242188 55.609375 110.265625 C 55.632812 110.265625 55.65625 110.265625 55.65625 110.265625 C 55.746094 110.289062 55.855469 110.3125 55.96875 110.3125 C 56.058594 110.3125 56.125 110.3125 56.214844 110.289062 C 56.234375 110.289062 56.257812 110.265625 56.300781 110.265625 C 56.324219 110.265625 56.347656 110.265625 56.390625 110.242188 C 56.414062 110.242188 56.4375 110.242188 56.460938 110.222656 C 56.527344 110.199219 56.617188 110.175781 56.683594 110.132812 C 56.703125 110.132812 56.726562 110.109375 56.75 110.109375 C 56.773438 110.085938 56.792969 110.085938 56.839844 110.066406 C 56.839844 110.066406 56.859375 110.066406 56.859375 110.042969 C 56.882812 110.019531 56.90625 110.019531 56.90625 110 C 56.949219 109.976562 56.996094 109.929688 57.019531 109.910156 C 57.039062 109.886719 57.039062 109.886719 57.0625 109.863281 C 57.085938 109.84375 57.105469 109.820312 57.128906 109.796875 C 57.175781 109.753906 57.195312 109.707031 57.242188 109.664062 C 57.261719 109.640625 57.285156 109.617188 57.308594 109.597656 L 98.394531 46.726562 C 98.730469 46.746094 99.089844 46.746094 99.421875 46.746094 C 103.445312 46.746094 107.464844 45.695312 111.0625 43.621094 C 111.710938 43.285156 112.003906 42.503906 111.757812 41.789062 Z M 65.21875 41.386719 C 59.453125 44.355469 52.527344 44.355469 46.761719 41.386719 C 48.304688 16.449219 53.152344 4.832031 55.988281 4.832031 C 58.828125 4.832031 63.675781 16.449219 65.21875 41.386719 Z M 43.613281 41.339844 C 37.847656 44.355469 30.945312 44.402344 25.15625 41.453125 C 28.710938 22.460938 38.832031 8.5625 50.894531 5.480469 C 45.710938 14.058594 44.035156 34.773438 43.613281 41.339844 Z M 45.132812 44.066406 C 48.058594 45.609375 51.207031 46.5 54.425781 46.703125 L 54.425781 98.871094 L 37.335938 46.570312 C 40.039062 46.210938 42.675781 45.363281 45.132812 44.066406 Z M 57.578125 46.703125 C 60.769531 46.480469 63.945312 45.609375 66.847656 44.066406 C 69.304688 45.363281 71.964844 46.210938 74.667969 46.570312 L 57.554688 98.871094 Z M 68.367188 41.339844 C 67.964844 34.773438 66.265625 14.082031 61.085938 5.480469 C 73.125 8.5625 83.269531 22.460938 86.824219 41.453125 C 81.011719 44.378906 74.109375 44.355469 68.367188 41.339844 Z M 3.574219 41.519531 C 8.9375 24.449219 23.324219 11.511719 41.042969 6.777344 C 31.925781 13.324219 24.800781 25.722656 21.984375 41.273438 C 16.265625 44.335938 9.363281 44.402344 3.574219 41.519531 Z M 23.414062 44.066406 C 26.742188 45.832031 30.40625 46.726562 34.09375 46.746094 L 50.804688 97.933594 L 17.09375 46.324219 C 19.28125 45.898438 21.402344 45.136719 23.414062 44.066406 Z M 61.171875 97.933594 L 77.90625 46.746094 C 81.570312 46.726562 85.234375 45.808594 88.566406 44.066406 C 90.574219 45.136719 92.722656 45.898438 94.910156 46.324219 Z M 89.972656 41.273438 C 87.15625 25.722656 80.03125 13.324219 70.914062 6.777344 C 88.632812 11.492188 103.019531 24.449219 108.382812 41.519531 C 102.597656 44.402344 95.714844 44.335938 89.972656 41.273438 Z M 89.972656 41.273438 " fill-opacity="1" fill-rule="nonzero"/></g></svg>