<svg xmlns="http://www.w3.org/2000/svg" xmlns:xlink="http://www.w3.org/1999/xlink" width="150" zoomAndPan="magnify" viewBox="0 0 112.5 112.499997" height="150" preserveAspectRatio="xMidYMid meet" version="1.0"><defs><clipPath id="819423c0e7"><path d="M 32.632812 0 L 69.96875 0 L 69.96875 112 L 32.632812 112 Z M 32.632812 0 " clip-rule="nonzero"/></clipPath><clipPath id="5c1b9fc780"><path d="M 32.632812 0 L 69.96875 0 L 69.96875 112.003906 L 32.632812 112.003906 Z M 32.632812 0 " clip-rule="nonzero"/></clipPath><clipPath id="5cd526bf65"><path d="M 67 17 L 79.660156 17 L 79.660156 21 L 67 21 Z M 67 17 " clip-rule="nonzero"/></clipPath><clipPath id="58591e9d73"><path d="M 67.121094 17.09375 L 79.367188 17.09375 L 79.367188 20.957031 L 67.121094 20.957031 Z M 67.121094 17.09375 " clip-rule="nonzero"/></clipPath><clipPath id="0293074b8d"><path d="M 67 34 L 79.660156 34 L 79.660156 39 L 67 39 Z M 67 34 " clip-rule="nonzero"/></clipPath><clipPath id="dee80b18f9"><path d="M 67.121094 34.691406 L 79.367188 34.691406 L 79.367188 38.558594 L 67.121094 38.558594 Z M 67.121094 34.691406 " clip-rule="nonzero"/></clipPath><clipPath id="5be819a082"><path d="M 67 52 L 79.660156 52 L 79.660156 57 L 67 57 Z M 67 52 " clip-rule="nonzero"/></clipPath><clipPath id="47307ba100"><path d="M 67.121094 52.191406 L 79.367188 52.191406 L 79.367188 56.058594 L 67.121094 56.058594 Z M 67.121094 52.191406 " clip-rule="nonzero"/></clipPath><clipPath id="355f34345e"><path d="M 67 69 L 79.660156 69 L 79.660156 74 L 67 74 Z M 67 69 " clip-rule="nonzero"/></clipPath><clipPath id="dadc33e118"><path d="M 67.121094 69.792969 L 79.367188 69.792969 L 79.367188 73.65625 L 67.121094 73.65625 Z M 67.121094 69.792969 " clip-rule="nonzero"/></clipPath></defs><g clip-path="url(#819423c0e7)"><path fill="#205375" d="M 51.292969 108.277344 C 43.058594 108.277344 36.359375 101.578125 36.359375 93.34375 C 36.359375 88.632812 38.515625 84.296875 42.269531 81.445312 C 42.277344 81.441406 42.289062 81.433594 42.296875 81.425781 C 42.320312 81.402344 42.347656 81.382812 42.371094 81.359375 C 42.394531 81.339844 42.414062 81.324219 42.4375 81.300781 C 42.457031 81.28125 42.476562 81.261719 42.496094 81.242188 C 42.519531 81.214844 42.542969 81.191406 42.5625 81.167969 C 42.578125 81.148438 42.59375 81.128906 42.609375 81.109375 C 42.628906 81.082031 42.652344 81.054688 42.671875 81.027344 C 42.6875 81.003906 42.699219 80.984375 42.710938 80.960938 C 42.730469 80.933594 42.75 80.90625 42.765625 80.875 C 42.777344 80.851562 42.789062 80.824219 42.804688 80.800781 C 42.816406 80.773438 42.828125 80.746094 42.84375 80.71875 C 42.855469 80.691406 42.867188 80.660156 42.878906 80.628906 C 42.886719 80.605469 42.894531 80.582031 42.90625 80.554688 C 42.914062 80.523438 42.925781 80.492188 42.933594 80.457031 C 42.9375 80.433594 42.945312 80.410156 42.953125 80.382812 C 42.957031 80.351562 42.964844 80.320312 42.96875 80.289062 C 42.972656 80.257812 42.980469 80.230469 42.984375 80.203125 C 42.984375 80.175781 42.988281 80.144531 42.988281 80.117188 C 42.992188 80.082031 42.996094 80.050781 42.996094 80.015625 C 42.996094 80.003906 42.996094 79.992188 42.996094 79.980469 L 42.996094 12.050781 C 42.996094 7.460938 46.730469 3.726562 51.316406 3.726562 C 53.539062 3.726562 55.628906 4.59375 57.199219 6.164062 C 58.769531 7.738281 59.636719 9.828125 59.636719 12.050781 L 59.636719 79.992188 C 59.636719 80.003906 59.636719 80.015625 59.636719 80.027344 C 59.640625 80.0625 59.640625 80.09375 59.644531 80.128906 C 59.644531 80.15625 59.648438 80.183594 59.652344 80.214844 C 59.65625 80.242188 59.660156 80.269531 59.664062 80.296875 C 59.667969 80.332031 59.675781 80.363281 59.683594 80.394531 C 59.6875 80.417969 59.695312 80.441406 59.699219 80.46875 C 59.710938 80.5 59.71875 80.535156 59.730469 80.566406 C 59.738281 80.589844 59.746094 80.617188 59.753906 80.640625 C 59.765625 80.671875 59.777344 80.703125 59.792969 80.730469 C 59.804688 80.757812 59.816406 80.785156 59.828125 80.808594 C 59.84375 80.835938 59.855469 80.863281 59.871094 80.886719 C 59.886719 80.917969 59.902344 80.945312 59.921875 80.972656 C 59.933594 80.992188 59.949219 81.015625 59.960938 81.039062 C 59.980469 81.066406 60.003906 81.09375 60.023438 81.121094 C 60.039062 81.140625 60.054688 81.160156 60.070312 81.179688 C 60.089844 81.203125 60.113281 81.226562 60.136719 81.25 C 60.15625 81.273438 60.175781 81.292969 60.195312 81.3125 C 60.214844 81.332031 60.238281 81.351562 60.261719 81.371094 C 60.285156 81.394531 60.308594 81.414062 60.335938 81.4375 C 60.34375 81.441406 60.351562 81.449219 60.363281 81.457031 C 64.085938 84.292969 66.222656 88.625 66.222656 93.34375 C 66.222656 101.578125 59.527344 108.277344 51.292969 108.277344 Z M 63.316406 79.113281 L 63.316406 12.050781 C 63.316406 8.847656 62.066406 5.832031 59.800781 3.566406 C 57.535156 1.300781 54.523438 0.0507812 51.316406 0.0507812 C 44.703125 0.0507812 39.320312 5.433594 39.320312 12.050781 L 39.320312 79.101562 C 35.089844 82.648438 32.683594 87.785156 32.683594 93.34375 C 32.683594 103.605469 41.03125 111.953125 51.292969 111.953125 C 61.554688 111.953125 69.902344 103.605469 69.902344 93.34375 C 69.902344 87.78125 67.511719 82.644531 63.316406 79.113281 " fill-opacity="1" fill-rule="nonzero"/></g><g clip-path="url(#5c1b9fc780)"><path fill="#205375" d="M 51.316406 3.78125 C 46.757812 3.78125 43.046875 7.488281 43.046875 12.050781 L 43.046875 79.980469 C 43.046875 79.988281 43.046875 79.996094 43.046875 80.003906 L 43.046875 80.015625 C 43.046875 80.050781 43.042969 80.085938 43.042969 80.121094 C 43.039062 80.148438 43.035156 80.179688 43.03125 80.207031 C 43.03125 80.238281 43.023438 80.265625 43.019531 80.296875 C 43.011719 80.332031 43.007812 80.363281 43 80.394531 C 42.996094 80.414062 42.992188 80.433594 42.984375 80.453125 L 42.980469 80.472656 C 42.972656 80.503906 42.964844 80.539062 42.953125 80.570312 C 42.945312 80.589844 42.9375 80.609375 42.929688 80.628906 L 42.921875 80.660156 C 42.910156 80.6875 42.898438 80.714844 42.886719 80.742188 C 42.878906 80.761719 42.867188 80.785156 42.855469 80.808594 L 42.839844 80.835938 C 42.832031 80.859375 42.820312 80.878906 42.808594 80.902344 C 42.792969 80.925781 42.777344 80.953125 42.761719 80.976562 L 42.746094 81.003906 C 42.734375 81.019531 42.726562 81.039062 42.710938 81.054688 C 42.691406 81.082031 42.671875 81.113281 42.648438 81.140625 L 42.640625 81.152344 C 42.628906 81.167969 42.613281 81.183594 42.601562 81.203125 C 42.578125 81.226562 42.558594 81.25 42.535156 81.277344 C 42.511719 81.300781 42.492188 81.320312 42.472656 81.339844 C 42.449219 81.359375 42.429688 81.378906 42.40625 81.398438 C 42.378906 81.421875 42.355469 81.445312 42.328125 81.464844 L 42.316406 81.472656 C 42.3125 81.476562 42.308594 81.484375 42.300781 81.488281 C 38.558594 84.328125 36.410156 88.652344 36.410156 93.34375 C 36.410156 101.550781 43.085938 108.226562 51.292969 108.226562 C 59.496094 108.226562 66.171875 101.550781 66.171875 93.34375 C 66.171875 88.640625 64.042969 84.324219 60.332031 81.496094 C 60.324219 81.492188 60.320312 81.488281 60.316406 81.484375 L 60.304688 81.476562 C 60.277344 81.453125 60.253906 81.433594 60.226562 81.410156 C 60.203125 81.390625 60.183594 81.371094 60.160156 81.351562 C 60.140625 81.328125 60.121094 81.308594 60.097656 81.285156 C 60.078125 81.261719 60.054688 81.238281 60.03125 81.210938 C 60.019531 81.195312 60.003906 81.179688 59.992188 81.164062 L 59.984375 81.148438 C 59.957031 81.117188 59.9375 81.09375 59.921875 81.066406 C 59.910156 81.050781 59.898438 81.03125 59.886719 81.011719 L 59.878906 81 C 59.855469 80.964844 59.839844 80.9375 59.824219 80.914062 C 59.8125 80.890625 59.800781 80.871094 59.792969 80.847656 L 59.777344 80.816406 C 59.765625 80.792969 59.753906 80.773438 59.746094 80.75 C 59.734375 80.722656 59.722656 80.695312 59.710938 80.667969 L 59.703125 80.640625 C 59.695312 80.621094 59.6875 80.601562 59.679688 80.582031 C 59.667969 80.550781 59.660156 80.515625 59.652344 80.480469 L 59.648438 80.46875 C 59.640625 80.445312 59.636719 80.425781 59.632812 80.40625 C 59.625 80.375 59.621094 80.34375 59.613281 80.3125 L 59.613281 80.300781 C 59.609375 80.273438 59.605469 80.246094 59.601562 80.21875 C 59.597656 80.191406 59.59375 80.164062 59.59375 80.136719 C 59.589844 80.097656 59.589844 80.0625 59.585938 80.027344 L 59.585938 80.015625 C 59.585938 80.007812 59.585938 80 59.585938 79.992188 L 59.585938 12.050781 C 59.585938 9.839844 58.726562 7.765625 57.164062 6.203125 C 55.601562 4.640625 53.527344 3.78125 51.316406 3.78125 Z M 51.292969 108.328125 C 43.03125 108.328125 36.308594 101.605469 36.308594 93.34375 C 36.308594 88.617188 38.472656 84.265625 42.238281 81.40625 L 42.25 81.398438 C 42.253906 81.394531 42.261719 81.390625 42.265625 81.386719 C 42.289062 81.363281 42.3125 81.34375 42.339844 81.324219 C 42.359375 81.304688 42.382812 81.285156 42.402344 81.265625 C 42.421875 81.246094 42.4375 81.230469 42.453125 81.210938 C 42.480469 81.183594 42.503906 81.160156 42.523438 81.136719 C 42.535156 81.121094 42.546875 81.105469 42.558594 81.089844 L 42.570312 81.078125 C 42.589844 81.050781 42.609375 81.023438 42.628906 80.996094 C 42.640625 80.980469 42.648438 80.964844 42.660156 80.949219 L 42.675781 80.921875 C 42.691406 80.898438 42.707031 80.875 42.71875 80.851562 C 42.730469 80.832031 42.742188 80.8125 42.75 80.792969 L 42.765625 80.761719 C 42.777344 80.742188 42.785156 80.722656 42.796875 80.699219 C 42.804688 80.675781 42.816406 80.648438 42.824219 80.625 L 42.835938 80.59375 C 42.84375 80.574219 42.851562 80.558594 42.855469 80.539062 C 42.867188 80.507812 42.875 80.476562 42.882812 80.445312 L 42.886719 80.429688 C 42.894531 80.410156 42.898438 80.390625 42.902344 80.371094 C 42.910156 80.34375 42.914062 80.3125 42.917969 80.285156 C 42.925781 80.25 42.929688 80.222656 42.933594 80.195312 C 42.933594 80.167969 42.9375 80.140625 42.9375 80.113281 C 42.941406 80.082031 42.945312 80.046875 42.945312 80.015625 L 42.945312 79.996094 C 42.945312 79.992188 42.945312 79.988281 42.945312 79.980469 L 42.945312 12.050781 C 42.945312 7.433594 46.703125 3.675781 51.316406 3.675781 C 53.554688 3.675781 55.65625 4.546875 57.234375 6.128906 C 58.816406 7.710938 59.6875 9.8125 59.6875 12.050781 L 59.6875 79.992188 C 59.6875 80 59.6875 80.003906 59.6875 80.007812 L 59.6875 80.027344 C 59.691406 80.058594 59.691406 80.089844 59.695312 80.121094 C 59.695312 80.15625 59.699219 80.179688 59.703125 80.207031 C 59.703125 80.234375 59.707031 80.257812 59.714844 80.285156 L 59.664062 80.304688 L 59.714844 80.296875 C 59.71875 80.324219 59.726562 80.355469 59.730469 80.382812 C 59.734375 80.402344 59.742188 80.421875 59.746094 80.441406 L 59.75 80.457031 C 59.757812 80.488281 59.765625 80.519531 59.777344 80.550781 C 59.78125 80.570312 59.789062 80.585938 59.796875 80.605469 L 59.804688 80.621094 C 59.816406 80.65625 59.828125 80.683594 59.839844 80.710938 C 59.847656 80.730469 59.855469 80.75 59.867188 80.769531 L 59.882812 80.804688 C 59.894531 80.824219 59.902344 80.84375 59.914062 80.863281 C 59.925781 80.886719 59.941406 80.914062 59.957031 80.9375 L 59.972656 80.960938 C 59.984375 80.976562 59.992188 80.992188 60.003906 81.007812 C 60.023438 81.035156 60.039062 81.058594 60.058594 81.082031 L 60.074219 81.101562 C 60.085938 81.117188 60.097656 81.132812 60.109375 81.148438 C 60.128906 81.171875 60.152344 81.191406 60.171875 81.214844 C 60.191406 81.238281 60.210938 81.257812 60.230469 81.277344 C 60.25 81.296875 60.273438 81.316406 60.292969 81.332031 C 60.320312 81.355469 60.34375 81.375 60.367188 81.394531 C 60.375 81.398438 60.378906 81.402344 60.382812 81.410156 L 60.394531 81.417969 C 64.132812 84.261719 66.273438 88.609375 66.273438 93.34375 C 66.273438 101.605469 59.554688 108.328125 51.292969 108.328125 Z M 51.316406 0.101562 C 44.730469 0.101562 39.371094 5.460938 39.371094 12.050781 L 39.371094 79.125 L 39.351562 79.140625 C 35.144531 82.667969 32.734375 87.84375 32.734375 93.34375 C 32.734375 103.578125 41.058594 111.902344 51.292969 111.902344 C 61.527344 111.902344 69.851562 103.578125 69.851562 93.34375 C 69.851562 87.839844 67.457031 82.664062 63.28125 79.152344 L 63.265625 79.136719 L 63.265625 12.050781 C 63.265625 8.859375 62.019531 5.859375 59.765625 3.601562 C 57.507812 1.34375 54.507812 0.101562 51.316406 0.101562 Z M 51.292969 112.003906 C 41.003906 112.003906 32.632812 103.632812 32.632812 93.34375 C 32.632812 87.820312 35.050781 82.621094 39.269531 79.078125 L 39.269531 12.050781 C 39.269531 5.40625 44.671875 0 51.316406 0 C 54.535156 0 57.5625 1.253906 59.835938 3.53125 C 62.113281 5.804688 63.367188 8.832031 63.367188 12.050781 L 63.367188 79.089844 C 67.550781 82.621094 69.953125 87.816406 69.953125 93.34375 C 69.953125 103.632812 61.582031 112.003906 51.292969 112.003906 " fill-opacity="1" fill-rule="nonzero"/></g><path fill="#205375" d="M 53.121094 84.355469 C 53.128906 84.296875 53.132812 84.238281 53.132812 84.175781 L 53.15625 45.4375 C 53.15625 44.421875 52.332031 43.597656 51.316406 43.597656 C 50.300781 43.597656 49.480469 44.417969 49.476562 45.433594 L 49.453125 84.171875 C 49.453125 84.234375 49.457031 84.296875 49.460938 84.355469 C 45.273438 85.207031 42.121094 88.90625 42.121094 93.34375 C 42.121094 98.410156 46.226562 102.515625 51.292969 102.515625 C 56.355469 102.515625 60.460938 98.410156 60.460938 93.34375 C 60.460938 88.90625 57.308594 85.207031 53.121094 84.355469 " fill-opacity="1" fill-rule="nonzero"/><path fill="#205375" d="M 51.316406 43.648438 C 50.332031 43.648438 49.53125 44.449219 49.527344 45.433594 L 49.503906 84.171875 C 49.503906 84.230469 49.507812 84.292969 49.515625 84.351562 L 49.519531 84.398438 L 49.472656 84.40625 C 45.242188 85.265625 42.171875 89.023438 42.171875 93.34375 C 42.171875 98.371094 46.265625 102.464844 51.292969 102.464844 C 56.320312 102.464844 60.410156 98.371094 60.410156 93.34375 C 60.410156 89.023438 57.34375 85.265625 53.113281 84.40625 L 53.066406 84.398438 L 53.070312 84.351562 C 53.078125 84.289062 53.082031 84.234375 53.082031 84.175781 L 53.105469 45.4375 C 53.105469 44.957031 52.917969 44.507812 52.582031 44.171875 C 52.246094 43.832031 51.796875 43.648438 51.316406 43.648438 Z M 51.292969 102.566406 C 46.207031 102.566406 42.070312 98.429688 42.070312 93.34375 C 42.070312 88.988281 45.15625 85.199219 49.410156 84.316406 C 49.40625 84.269531 49.402344 84.21875 49.402344 84.171875 L 49.425781 45.433594 C 49.429688 44.394531 50.277344 43.546875 51.316406 43.546875 C 51.824219 43.546875 52.296875 43.742188 52.652344 44.101562 C 53.011719 44.457031 53.207031 44.929688 53.207031 45.4375 L 53.183594 84.175781 C 53.183594 84.222656 53.179688 84.269531 53.175781 84.316406 C 57.429688 85.199219 60.511719 88.988281 60.511719 93.34375 C 60.511719 98.429688 56.378906 102.566406 51.292969 102.566406 " fill-opacity="1" fill-rule="nonzero"/><g clip-path="url(#5cd526bf65)"><path fill="#205375" d="M 69.042969 20.890625 L 77.476562 20.890625 C 78.492188 20.890625 79.316406 20.070312 79.316406 19.054688 C 79.316406 18.039062 78.492188 17.214844 77.476562 17.214844 L 69.042969 17.214844 C 68.027344 17.214844 67.207031 18.039062 67.207031 19.054688 C 67.207031 20.070312 68.027344 20.890625 69.042969 20.890625 " fill-opacity="1" fill-rule="nonzero"/></g><g clip-path="url(#58591e9d73)"><path fill="#205375" d="M 69.042969 17.265625 C 68.058594 17.265625 67.257812 18.066406 67.257812 19.054688 C 67.257812 20.039062 68.058594 20.839844 69.042969 20.839844 L 77.476562 20.839844 C 78.464844 20.839844 79.265625 20.039062 79.265625 19.054688 C 79.265625 18.066406 78.464844 17.265625 77.476562 17.265625 Z M 77.476562 20.941406 L 69.042969 20.941406 C 68.003906 20.941406 67.15625 20.09375 67.15625 19.054688 C 67.15625 18.011719 68.003906 17.164062 69.042969 17.164062 L 77.476562 17.164062 C 78.519531 17.164062 79.367188 18.011719 79.367188 19.054688 C 79.367188 20.09375 78.519531 20.941406 77.476562 20.941406 " fill-opacity="1" fill-rule="nonzero"/></g><g clip-path="url(#0293074b8d)"><path fill="#205375" d="M 77.476562 34.769531 L 69.042969 34.769531 C 68.027344 34.769531 67.207031 35.59375 67.207031 36.609375 C 67.207031 37.625 68.027344 38.449219 69.042969 38.449219 L 77.476562 38.449219 C 78.492188 38.449219 79.316406 37.625 79.316406 36.609375 C 79.316406 35.59375 78.492188 34.769531 77.476562 34.769531 " fill-opacity="1" fill-rule="nonzero"/></g><g clip-path="url(#dee80b18f9)"><path fill="#205375" d="M 69.042969 34.820312 C 68.058594 34.820312 67.257812 35.621094 67.257812 36.609375 C 67.257812 37.59375 68.058594 38.398438 69.042969 38.398438 L 77.476562 38.398438 C 78.464844 38.398438 79.265625 37.59375 79.265625 36.609375 C 79.265625 35.621094 78.464844 34.820312 77.476562 34.820312 Z M 77.476562 38.5 L 69.042969 38.5 C 68.003906 38.5 67.15625 37.648438 67.15625 36.609375 C 67.15625 35.566406 68.003906 34.71875 69.042969 34.71875 L 77.476562 34.71875 C 78.519531 34.71875 79.367188 35.566406 79.367188 36.609375 C 79.367188 37.648438 78.519531 38.5 77.476562 38.5 " fill-opacity="1" fill-rule="nonzero"/></g><g clip-path="url(#5be819a082)"><path fill="#205375" d="M 77.476562 52.324219 L 69.042969 52.324219 C 68.027344 52.324219 67.207031 53.148438 67.207031 54.164062 C 67.207031 55.179688 68.027344 56.003906 69.042969 56.003906 L 77.476562 56.003906 C 78.492188 56.003906 79.316406 55.179688 79.316406 54.164062 C 79.316406 53.148438 78.492188 52.324219 77.476562 52.324219 " fill-opacity="1" fill-rule="nonzero"/></g><g clip-path="url(#47307ba100)"><path fill="#205375" d="M 69.042969 52.375 C 68.058594 52.375 67.257812 53.179688 67.257812 54.164062 C 67.257812 55.148438 68.058594 55.953125 69.042969 55.953125 L 77.476562 55.953125 C 78.464844 55.953125 79.265625 55.148438 79.265625 54.164062 C 79.265625 53.179688 78.464844 52.375 77.476562 52.375 Z M 77.476562 56.054688 L 69.042969 56.054688 C 68.003906 56.054688 67.15625 55.207031 67.15625 54.164062 C 67.15625 53.121094 68.003906 52.273438 69.042969 52.273438 L 77.476562 52.273438 C 78.519531 52.273438 79.367188 53.121094 79.367188 54.164062 C 79.367188 55.207031 78.519531 56.054688 77.476562 56.054688 " fill-opacity="1" fill-rule="nonzero"/></g><g clip-path="url(#355f34345e)"><path fill="#205375" d="M 77.476562 69.878906 L 69.042969 69.878906 C 68.027344 69.878906 67.207031 70.703125 67.207031 71.71875 C 67.207031 72.734375 68.027344 73.558594 69.042969 73.558594 L 77.476562 73.558594 C 78.492188 73.558594 79.316406 72.734375 79.316406 71.71875 C 79.316406 70.703125 78.492188 69.878906 77.476562 69.878906 " fill-opacity="1" fill-rule="nonzero"/></g><g clip-path="url(#dadc33e118)"><path fill="#205375" d="M 69.042969 69.929688 C 68.058594 69.929688 67.257812 70.734375 67.257812 71.71875 C 67.257812 72.703125 68.058594 73.507812 69.042969 73.507812 L 77.476562 73.507812 C 78.464844 73.507812 79.265625 72.703125 79.265625 71.71875 C 79.265625 70.734375 78.464844 69.929688 77.476562 69.929688 Z M 77.476562 73.609375 L 69.042969 73.609375 C 68.003906 73.609375 67.15625 72.761719 67.15625 71.71875 C 67.15625 70.675781 68.003906 69.828125 69.042969 69.828125 L 77.476562 69.828125 C 78.519531 69.828125 79.367188 70.675781 79.367188 71.71875 C 79.367188 72.761719 78.519531 73.609375 77.476562 73.609375 " fill-opacity="1" fill-rule="nonzero"/></g></svg>