<svg xmlns="http://www.w3.org/2000/svg" xmlns:xlink="http://www.w3.org/1999/xlink" width="150" zoomAndPan="magnify" viewBox="0 0 112.5 112.499997" height="150" preserveAspectRatio="xMidYMid meet" version="1.0"><defs><clipPath id="0dfec26374"><path d="M 9.339844 0.0820312 L 112 0.0820312 L 112 102.90625 L 9.339844 102.90625 Z M 9.339844 0.0820312 " clip-rule="nonzero"/></clipPath><clipPath id="e49aa7fbba"><path d="M 15.546875 92.460938 L 36 92.460938 L 36 112.003906 L 15.546875 112.003906 Z M 15.546875 92.460938 " clip-rule="nonzero"/></clipPath></defs><g clip-path="url(#0dfec26374)"><path fill="#58595b" d="M 60.074219 74.019531 C 64.558594 71.722656 69.335938 68.839844 74.132812 65.558594 C 76.035156 76.019531 73.09375 87.199219 65.285156 95.433594 C 65.1875 87.933594 63.386719 80.625 60.074219 74.019531 Z M 42.84375 77.867188 C 38.785156 81.925781 32.371094 82.753906 29.125 82.902344 C 29.265625 79.664062 30.089844 73.269531 34.167969 69.195312 C 35.984375 67.378906 37.882812 65.941406 39.699219 64.886719 L 47.15625 72.339844 C 46.097656 74.152344 44.660156 76.050781 42.84375 77.867188 Z M 16.589844 46.769531 C 24.828125 38.964844 36.015625 36.023438 46.480469 37.925781 C 43.199219 42.71875 40.3125 47.496094 38.019531 51.976562 C 31.40625 48.664062 24.09375 46.867188 16.589844 46.769531 Z M 106.914062 5.171875 C 107.554688 8.035156 108.796875 16.105469 105.484375 25.761719 L 86.304688 6.59375 C 95.929688 3.304688 104.042969 4.539062 106.914062 5.171875 Z M 54.066406 72.121094 C 53.824219 72.226562 53.582031 72.335938 53.34375 72.4375 L 52.402344 71.5 L 39.597656 58.703125 C 39.699219 58.460938 39.808594 58.21875 39.917969 57.980469 C 40.480469 56.710938 41.101562 55.40625 41.777344 54.070312 C 44.207031 49.300781 47.34375 44.171875 50.933594 39.046875 C 51.789062 37.828125 52.664062 36.605469 53.566406 35.394531 C 58.125 29.253906 63.246094 23.246094 68.492188 18.003906 C 72.628906 13.867188 77.160156 10.625 81.972656 8.351562 L 103.726562 30.089844 C 101.449219 34.898438 98.203125 39.425781 94.066406 43.5625 C 88.820312 48.804688 82.808594 53.925781 76.667969 58.480469 C 75.453125 59.382812 74.234375 60.257812 73.011719 61.109375 C 67.882812 64.699219 62.75 67.832031 57.976562 70.257812 C 56.640625 70.9375 55.335938 71.558594 54.066406 72.121094 Z M 77.96875 62.851562 C 84.730469 57.9375 91.371094 52.339844 97.113281 46.605469 C 102.011719 41.707031 105.769531 36.277344 108.277344 30.472656 C 114.699219 15.597656 110.898438 3.261719 110.734375 2.746094 C 110.519531 2.082031 110 1.5625 109.335938 1.347656 C 108.816406 1.183594 96.476562 -2.613281 81.589844 3.804688 C 75.78125 6.308594 70.347656 10.0625 65.449219 14.960938 C 59.710938 20.695312 54.109375 27.335938 49.195312 34.089844 C 36.554688 31.125 22.707031 34.550781 12.871094 44.378906 C 11.835938 45.414062 10.820312 46.5625 9.851562 47.785156 C 9.320312 48.460938 9.238281 49.390625 9.648438 50.148438 C 10.058594 50.902344 10.882812 51.339844 11.738281 51.261719 C 20.273438 50.472656 28.699219 52.113281 36.148438 55.855469 C 35.757812 56.71875 35.394531 57.570312 35.058594 58.398438 C 34.738281 59.199219 34.925781 60.117188 35.535156 60.726562 L 36.550781 61.738281 C 34.71875 62.917969 32.882812 64.394531 31.121094 66.152344 C 24.140625 73.128906 24.789062 84.707031 24.820312 85.195312 C 24.851562 85.738281 25.085938 86.226562 25.445312 86.582031 C 25.804688 86.941406 26.289062 87.175781 26.832031 87.210938 C 27.320312 87.238281 38.910156 87.886719 45.890625 80.910156 C 47.648438 79.152344 49.125 77.316406 50.304688 75.484375 L 51.320312 76.5 C 51.929688 77.109375 52.84375 77.296875 53.644531 76.972656 C 54.476562 76.640625 55.328125 76.273438 56.191406 75.886719 C 59.9375 83.332031 61.578125 91.753906 60.789062 100.28125 C 60.726562 100.929688 60.964844 101.554688 61.410156 102 C 61.554688 102.144531 61.71875 102.269531 61.90625 102.371094 C 62.660156 102.78125 63.589844 102.699219 64.265625 102.167969 C 65.492188 101.199219 66.640625 100.183594 67.671875 99.148438 C 77.507812 89.320312 80.9375 75.480469 77.96875 62.851562 " fill-opacity="1" fill-rule="nonzero"/></g><path fill="#58595b" d="M 72.550781 39.503906 C 69.980469 36.933594 69.980469 32.746094 72.550781 30.175781 C 75.128906 27.601562 79.316406 27.601562 81.890625 30.175781 C 84.464844 32.746094 84.464844 36.933594 81.890625 39.503906 C 79.316406 42.078125 75.128906 42.078125 72.550781 39.503906 Z M 84.933594 27.128906 C 80.679688 22.878906 73.761719 22.878906 69.507812 27.128906 C 65.253906 31.382812 65.253906 38.296875 69.507812 42.546875 C 73.761719 46.796875 80.679688 46.796875 84.933594 42.546875 C 89.1875 38.296875 89.1875 31.382812 84.933594 27.128906 " fill-opacity="1" fill-rule="nonzero"/><path fill="#58595b" d="M 20.796875 91.230469 C 19.953125 90.390625 18.59375 90.390625 17.75 91.230469 L 1.917969 107.050781 C 1.078125 107.890625 1.078125 109.253906 1.917969 110.09375 C 2.761719 110.933594 4.125 110.933594 4.964844 110.09375 L 20.796875 94.273438 C 21.636719 93.429688 21.636719 92.070312 20.796875 91.230469 " fill-opacity="1" fill-rule="nonzero"/><path fill="#58595b" d="M 26.277344 57.761719 C 25.4375 56.921875 24.070312 56.921875 23.230469 57.761719 L 7.398438 73.582031 C 6.558594 74.421875 6.558594 75.785156 7.398438 76.625 C 8.242188 77.464844 9.601562 77.464844 10.445312 76.625 L 26.277344 60.800781 C 27.117188 59.964844 27.117188 58.601562 26.277344 57.761719 " fill-opacity="1" fill-rule="nonzero"/><path fill="#58595b" d="M 19.703125 77.558594 C 18.863281 76.71875 17.5 76.71875 16.65625 77.558594 L 0.828125 93.382812 C -0.015625 94.222656 -0.015625 95.585938 0.828125 96.425781 C 1.667969 97.265625 3.03125 97.265625 3.871094 96.425781 L 19.703125 80.601562 C 20.542969 79.761719 20.542969 78.402344 19.703125 77.558594 " fill-opacity="1" fill-rule="nonzero"/><path fill="#58595b" d="M 55.121094 86.585938 C 54.277344 85.746094 52.917969 85.746094 52.074219 86.585938 L 36.246094 102.410156 C 35.402344 103.25 35.402344 104.613281 36.246094 105.449219 C 37.085938 106.292969 38.449219 106.292969 39.289062 105.449219 L 55.121094 89.628906 C 55.960938 88.789062 55.960938 87.425781 55.121094 86.585938 " fill-opacity="1" fill-rule="nonzero"/><g clip-path="url(#e49aa7fbba)"><path fill="#58595b" d="M 35.308594 93.15625 C 34.46875 92.316406 33.105469 92.316406 32.261719 93.15625 L 16.433594 108.976562 C 15.589844 109.816406 15.589844 111.179688 16.433594 112.019531 C 17.273438 112.863281 18.636719 112.863281 19.476562 112.019531 L 35.308594 96.199219 C 36.148438 95.359375 36.148438 93.996094 35.308594 93.15625 " fill-opacity="1" fill-rule="nonzero"/></g></svg>