<svg xmlns="http://www.w3.org/2000/svg" xmlns:xlink="http://www.w3.org/1999/xlink" width="150" zoomAndPan="magnify" viewBox="0 0 112.5 112.499997" height="150" preserveAspectRatio="xMidYMid meet" version="1.0"><defs><clipPath id="04363acede"><path d="M 25 1.820312 L 88 1.820312 L 88 32 L 25 32 Z M 25 1.820312 " clip-rule="nonzero"/></clipPath><clipPath id="cfebc0cfdb"><path d="M 0 82 L 112 82 L 112 110.089844 L 0 110.089844 Z M 0 82 " clip-rule="nonzero"/></clipPath></defs><path fill="#58595b" d="M 71.152344 30.726562 C 71.152344 31.6875 71.058594 32.636719 70.871094 33.578125 C 70.683594 34.519531 70.40625 35.433594 70.039062 36.320312 C 69.671875 37.207031 69.21875 38.050781 68.6875 38.847656 C 68.152344 39.644531 67.546875 40.386719 66.871094 41.0625 C 66.191406 41.742188 65.453125 42.347656 64.652344 42.882812 C 63.855469 43.414062 63.015625 43.863281 62.128906 44.230469 C 61.242188 44.597656 60.328125 44.875 59.386719 45.0625 C 58.445312 45.25 57.492188 45.34375 56.53125 45.34375 C 55.574219 45.34375 54.621094 45.25 53.679688 45.0625 C 52.738281 44.875 51.824219 44.597656 50.9375 44.230469 C 50.050781 43.863281 49.210938 43.414062 48.414062 42.882812 C 47.613281 42.347656 46.875 41.742188 46.195312 41.0625 C 45.519531 40.386719 44.914062 39.644531 44.378906 38.847656 C 43.847656 38.050781 43.394531 37.207031 43.027344 36.320312 C 42.660156 35.433594 42.382812 34.519531 42.195312 33.578125 C 42.007812 32.636719 41.914062 31.6875 41.914062 30.726562 C 41.914062 29.769531 42.007812 28.816406 42.195312 27.875 C 42.382812 26.933594 42.660156 26.019531 43.027344 25.132812 C 43.394531 24.246094 43.847656 23.40625 44.378906 22.605469 C 44.914062 21.808594 45.519531 21.070312 46.195312 20.390625 C 46.875 19.710938 47.613281 19.105469 48.414062 18.574219 C 49.210938 18.039062 50.050781 17.589844 50.9375 17.222656 C 51.824219 16.855469 52.738281 16.578125 53.679688 16.390625 C 54.621094 16.203125 55.574219 16.109375 56.53125 16.109375 C 57.492188 16.109375 58.445312 16.203125 59.386719 16.390625 C 60.328125 16.578125 61.242188 16.855469 62.128906 17.222656 C 63.015625 17.589844 63.855469 18.039062 64.652344 18.574219 C 65.453125 19.105469 66.191406 19.710938 66.871094 20.390625 C 67.546875 21.070312 68.152344 21.808594 68.6875 22.605469 C 69.21875 23.40625 69.671875 24.246094 70.039062 25.132812 C 70.40625 26.019531 70.683594 26.933594 70.871094 27.875 C 71.058594 28.816406 71.152344 29.769531 71.152344 30.726562 Z M 71.152344 30.726562 " fill-opacity="1" fill-rule="nonzero"/><g clip-path="url(#04363acede)"><path fill="#58595b" d="M 78.113281 1.847656 L 35.722656 1.847656 C 30.34375 1.847656 25.96875 6.207031 25.96875 11.601562 L 25.96875 30.371094 C 25.96875 31.050781 26.515625 31.585938 27.179688 31.585938 L 35.398438 31.585938 C 35.871094 31.585938 36.242188 31.199219 36.242188 30.742188 C 36.242188 19.570312 45.328125 10.464844 56.519531 10.464844 C 67.707031 10.464844 76.796875 19.554688 76.796875 30.726562 C 76.796875 31.199219 77.179688 31.570312 77.640625 31.570312 L 86.640625 31.570312 C 87.320312 31.570312 87.851562 31.023438 87.851562 30.359375 L 87.851562 11.585938 C 87.867188 6.207031 83.507812 1.847656 78.113281 1.847656 Z M 78.113281 1.847656 " fill-opacity="1" fill-rule="nonzero"/></g><path fill="#58595b" d="M 56.53125 94.074219 C 40.007812 94.074219 24.386719 87.75 12.503906 76.265625 C 11.21875 75.023438 11.171875 72.953125 12.429688 71.667969 C 13.671875 70.382812 15.742188 70.335938 17.027344 71.59375 C 27.683594 81.894531 41.707031 87.570312 56.53125 87.570312 C 70.945312 87.570312 84.6875 82.160156 95.226562 72.363281 C 96.542969 71.136719 98.597656 71.210938 99.824219 72.523438 C 101.050781 73.839844 100.976562 75.894531 99.660156 77.121094 C 87.894531 88.058594 72.585938 94.074219 56.53125 94.074219 Z M 56.53125 94.074219 " fill-opacity="1" fill-rule="nonzero"/><g clip-path="url(#cfebc0cfdb)"><path fill="#58595b" d="M 56.53125 110.15625 C 35.828125 110.15625 16.214844 102.21875 1.332031 87.820312 C 0.0429688 86.582031 0 84.511719 1.257812 83.226562 C 2.496094 81.941406 4.566406 81.894531 5.851562 83.152344 C 19.523438 96.363281 37.527344 103.652344 56.53125 103.652344 C 75.023438 103.652344 92.65625 96.71875 106.179688 84.128906 C 107.496094 82.902344 109.546875 82.972656 110.777344 84.289062 C 112.003906 85.605469 111.929688 87.660156 110.613281 88.886719 C 95.863281 102.601562 76.664062 110.15625 56.53125 110.15625 Z M 56.53125 110.15625 " fill-opacity="1" fill-rule="nonzero"/></g><path fill="#58595b" d="M 56.53125 61.632812 C 48.476562 61.632812 40.851562 58.542969 35.058594 52.941406 C 33.773438 51.699219 33.726562 49.632812 34.984375 48.34375 C 36.226562 47.058594 38.292969 47.015625 39.582031 48.269531 C 44.164062 52.691406 50.179688 55.128906 56.546875 55.128906 C 62.742188 55.128906 68.636719 52.808594 73.160156 48.597656 C 74.476562 47.371094 76.53125 47.445312 77.757812 48.757812 C 78.984375 50.074219 78.910156 52.128906 77.59375 53.355469 C 71.832031 58.691406 64.367188 61.632812 56.53125 61.632812 Z M 56.53125 61.632812 " fill-opacity="1" fill-rule="nonzero"/><path fill="#58595b" d="M 56.53125 77.992188 C 44.207031 77.992188 32.546875 73.277344 23.675781 64.707031 C 22.390625 63.464844 22.347656 61.394531 23.605469 60.109375 C 24.84375 58.824219 26.914062 58.78125 28.199219 60.035156 C 35.839844 67.425781 45.90625 71.492188 56.53125 71.492188 C 66.863281 71.492188 76.722656 67.617188 84.289062 60.582031 C 85.605469 59.355469 87.660156 59.429688 88.886719 60.746094 C 90.113281 62.0625 90.039062 64.117188 88.722656 65.34375 C 79.929688 73.5 68.503906 77.992188 56.53125 77.992188 Z M 56.53125 77.992188 " fill-opacity="1" fill-rule="nonzero"/></svg>