<svg xmlns="http://www.w3.org/2000/svg" xmlns:xlink="http://www.w3.org/1999/xlink" width="150" zoomAndPan="magnify" viewBox="0 0 112.5 112.499997" height="150" preserveAspectRatio="xMidYMid meet" version="1.0"><defs><clipPath id="225ab88932"><path d="M 18 29 L 35 29 L 35 101.820312 L 18 101.820312 Z M 18 29 " clip-rule="nonzero"/></clipPath><clipPath id="ac163e55e0"><path d="M 37 45 L 53 45 L 53 101.820312 L 37 101.820312 Z M 37 45 " clip-rule="nonzero"/></clipPath><clipPath id="68608c0229"><path d="M 0 47 L 16 47 L 16 101.820312 L 0 101.820312 Z M 0 47 " clip-rule="nonzero"/></clipPath><clipPath id="23238e82fe"><path d="M 56 64 L 72 64 L 72 101.820312 L 56 101.820312 Z M 56 64 " clip-rule="nonzero"/></clipPath><clipPath id="6d7e1cff08"><path d="M 74 54 L 91 54 L 91 101.820312 L 74 101.820312 Z M 74 54 " clip-rule="nonzero"/></clipPath><clipPath id="e8d31034c9"><path d="M 6 9.976562 L 112 9.976562 L 112 93 L 6 93 Z M 6 9.976562 " clip-rule="nonzero"/></clipPath></defs><g clip-path="url(#225ab88932)"><path fill="#00bf63" d="M 20.945312 31.667969 C 20.898438 31.667969 20.859375 31.707031 20.859375 31.75 L 20.859375 99.816406 C 20.859375 99.863281 20.898438 99.902344 20.945312 99.902344 L 32.0625 99.902344 C 32.109375 99.902344 32.148438 99.863281 32.148438 99.816406 L 32.148438 31.75 C 32.148438 31.707031 32.109375 31.667969 32.0625 31.667969 Z M 32.0625 102.019531 L 20.945312 102.019531 C 19.730469 102.019531 18.742188 101.03125 18.742188 99.816406 L 18.742188 31.75 C 18.742188 30.539062 19.730469 29.550781 20.945312 29.550781 L 32.0625 29.550781 C 33.277344 29.550781 34.261719 30.539062 34.261719 31.75 L 34.261719 99.816406 C 34.261719 101.03125 33.277344 102.019531 32.0625 102.019531 " fill-opacity="1" fill-rule="nonzero"/></g><g clip-path="url(#ac163e55e0)"><path fill="#00bf63" d="M 39.566406 99.902344 L 50.855469 99.902344 L 50.855469 47.144531 L 39.566406 47.144531 Z M 50.996094 102.019531 L 39.425781 102.019531 C 38.339844 102.019531 37.453125 101.132812 37.453125 100.046875 L 37.453125 47 C 37.453125 45.914062 38.339844 45.027344 39.425781 45.027344 L 50.996094 45.027344 C 52.082031 45.027344 52.96875 45.914062 52.96875 47 L 52.96875 100.046875 C 52.96875 101.132812 52.082031 102.019531 50.996094 102.019531 " fill-opacity="1" fill-rule="nonzero"/></g><g clip-path="url(#68608c0229)"><path fill="#00bf63" d="M 2.148438 99.902344 L 13.4375 99.902344 L 13.4375 49.144531 L 2.148438 49.144531 Z M 13.582031 102.019531 L 2.007812 102.019531 C 0.917969 102.019531 0.0351562 101.132812 0.0351562 100.046875 L 0.0351562 49.003906 C 0.0351562 47.917969 0.917969 47.03125 2.007812 47.03125 L 13.582031 47.03125 C 14.667969 47.03125 15.554688 47.917969 15.554688 49.003906 L 15.554688 100.046875 C 15.554688 101.132812 14.667969 102.019531 13.582031 102.019531 " fill-opacity="1" fill-rule="nonzero"/></g><g clip-path="url(#23238e82fe)"><path fill="#00bf63" d="M 58.265625 99.902344 L 69.554688 99.902344 L 69.554688 66.433594 L 58.265625 66.433594 Z M 69.800781 102.019531 L 58.019531 102.019531 C 56.988281 102.019531 56.152344 101.179688 56.152344 100.148438 L 56.152344 66.1875 C 56.152344 65.15625 56.988281 64.316406 58.019531 64.316406 L 69.800781 64.316406 C 70.832031 64.316406 71.671875 65.15625 71.671875 66.1875 L 71.671875 100.148438 C 71.671875 101.179688 70.832031 102.019531 69.800781 102.019531 " fill-opacity="1" fill-rule="nonzero"/></g><g clip-path="url(#6d7e1cff08)"><path fill="#00bf63" d="M 88.414062 102.019531 L 76.84375 102.019531 C 75.753906 102.019531 74.871094 101.132812 74.871094 100.046875 L 74.871094 55.933594 C 74.871094 55.351562 75.34375 54.878906 75.929688 54.878906 C 76.511719 54.878906 76.984375 55.351562 76.984375 55.933594 L 76.984375 99.902344 L 88.269531 99.902344 L 88.269531 64.460938 C 88.269531 63.878906 88.746094 63.402344 89.328125 63.402344 C 89.914062 63.402344 90.386719 63.878906 90.386719 64.460938 L 90.386719 100.046875 C 90.386719 101.132812 89.503906 102.019531 88.414062 102.019531 " fill-opacity="1" fill-rule="nonzero"/></g><path fill="#00bf63" d="M 82.53125 51.140625 C 78.296875 51.140625 74.488281 48.792969 72.59375 45.015625 C 69.847656 39.539062 72.0625 32.847656 77.539062 30.101562 C 79.101562 29.320312 80.773438 28.921875 82.511719 28.921875 C 86.746094 28.921875 90.554688 31.269531 92.449219 35.046875 C 95.195312 40.519531 92.976562 47.207031 87.503906 49.957031 C 85.941406 50.742188 84.265625 51.140625 82.53125 51.140625 Z M 94.339844 34.097656 C 92.078125 29.597656 87.546875 26.804688 82.511719 26.804688 C 80.441406 26.804688 78.449219 27.277344 76.589844 28.210938 C 70.074219 31.484375 67.433594 39.445312 70.703125 45.960938 C 72.960938 50.460938 77.492188 53.253906 82.53125 53.253906 C 84.597656 53.253906 86.589844 52.78125 88.453125 51.847656 C 94.96875 48.574219 97.609375 40.613281 94.339844 34.097656 " fill-opacity="1" fill-rule="nonzero"/><g clip-path="url(#e8d31034c9)"><path fill="#00bf63" d="M 108.605469 89.597656 L 106.539062 90.636719 C 106.351562 90.730469 106.152344 90.777344 105.945312 90.777344 C 105.4375 90.777344 104.964844 90.488281 104.738281 90.039062 L 92.816406 66.292969 C 92.484375 65.628906 92.753906 64.820312 93.414062 64.492188 L 95.480469 63.453125 C 95.667969 63.359375 95.867188 63.3125 96.078125 63.3125 C 96.582031 63.3125 97.058594 63.601562 97.28125 64.050781 L 109.203125 87.800781 C 109.535156 88.460938 109.269531 89.269531 108.605469 89.597656 Z M 89.449219 62.453125 L 89.363281 62.285156 C 89.03125 61.625 89.296875 60.816406 89.957031 60.484375 L 94.335938 58.289062 C 94.523438 58.191406 94.722656 58.148438 94.929688 58.148438 C 95.4375 58.148438 95.910156 58.4375 96.136719 58.882812 L 96.222656 59.054688 C 96.378906 59.371094 96.40625 59.734375 96.292969 60.078125 C 96.179688 60.417969 95.941406 60.691406 95.625 60.851562 L 91.246094 63.050781 C 91.0625 63.144531 90.859375 63.191406 90.652344 63.191406 C 90.144531 63.191406 89.671875 62.902344 89.449219 62.453125 Z M 90.648438 56.230469 C 90.683594 56.210938 90.714844 56.195312 90.742188 56.179688 L 91.472656 55.8125 L 92.023438 56.914062 L 90.238281 57.808594 L 89.6875 56.710938 L 90.570312 56.265625 C 90.597656 56.25 90.625 56.242188 90.648438 56.230469 Z M 68.214844 47.210938 C 64.253906 39.320312 67.449219 29.679688 75.339844 25.722656 C 77.59375 24.589844 80.003906 24.015625 82.503906 24.015625 C 88.605469 24.015625 94.09375 27.398438 96.828125 32.847656 C 98.746094 36.667969 99.0625 41.011719 97.714844 45.070312 C 96.382812 49.085938 93.578125 52.351562 89.816406 54.277344 L 89.605469 54.382812 C 87.378906 55.480469 85.003906 56.042969 82.535156 56.042969 C 76.4375 56.042969 70.945312 52.660156 68.214844 47.210938 Z M 111.09375 86.851562 L 99.171875 63.101562 C 98.867188 62.488281 98.394531 62 97.828125 61.671875 C 98.03125 61.390625 98.191406 61.078125 98.300781 60.742188 C 98.59375 59.863281 98.523438 58.925781 98.113281 58.105469 L 98.027344 57.9375 C 97.4375 56.761719 96.25 56.03125 94.929688 56.03125 C 94.621094 56.03125 94.3125 56.078125 94.011719 56.164062 L 93.246094 54.636719 C 96.265625 52.429688 98.523438 49.355469 99.722656 45.734375 C 101.246094 41.140625 100.890625 36.226562 98.714844 31.902344 C 95.621094 25.734375 89.410156 21.902344 82.503906 21.902344 C 79.671875 21.902344 76.941406 22.550781 74.390625 23.832031 C 65.460938 28.3125 61.839844 39.226562 66.324219 48.160156 C 66.546875 48.609375 66.796875 49.042969 67.054688 49.464844 L 63.417969 55.914062 L 56.082031 38.007812 C 55.917969 37.609375 55.53125 37.351562 55.105469 37.351562 L 46.289062 37.351562 L 27.398438 10.429688 C 27.214844 10.167969 26.921875 10 26.601562 9.980469 C 26.277344 9.960938 25.972656 10.085938 25.753906 10.320312 L 6.304688 31.449219 C 5.910156 31.878906 5.9375 32.546875 6.367188 32.945312 C 6.796875 33.339844 7.464844 33.3125 7.863281 32.878906 L 26.421875 12.71875 L 44.875 39.015625 C 45.074219 39.296875 45.394531 39.464844 45.742188 39.464844 L 54.394531 39.464844 L 62.289062 58.738281 C 62.441406 59.113281 62.796875 59.367188 63.203125 59.390625 C 63.222656 59.394531 63.246094 59.394531 63.265625 59.394531 C 63.644531 59.394531 64 59.191406 64.1875 58.855469 L 68.394531 51.394531 C 71.789062 55.636719 76.933594 58.15625 82.535156 58.15625 C 84.292969 58.15625 86.011719 57.90625 87.671875 57.410156 L 88.445312 58.953125 C 87.164062 59.941406 86.71875 61.734375 87.472656 63.234375 L 87.558594 63.402344 C 88.136719 64.558594 89.292969 65.277344 90.585938 65.304688 C 90.511719 65.945312 90.617188 66.617188 90.925781 67.238281 L 102.847656 90.988281 C 103.4375 92.164062 104.625 92.890625 105.945312 92.890625 C 106.476562 92.890625 107.011719 92.765625 107.488281 92.527344 L 109.554688 91.488281 C 111.257812 90.632812 111.949219 88.554688 111.09375 86.851562 " fill-opacity="1" fill-rule="nonzero"/></g></svg>