<svg xmlns="http://www.w3.org/2000/svg" xmlns:xlink="http://www.w3.org/1999/xlink" width="150" zoomAndPan="magnify" viewBox="0 0 112.5 112.499997" height="150" preserveAspectRatio="xMidYMid meet" version="1.0"><defs><clipPath id="f193c2bc20"><path d="M 0 0 L 112.003906 0 L 112.003906 112.003906 L 0 112.003906 Z M 0 0 " clip-rule="nonzero"/></clipPath></defs><g clip-path="url(#f193c2bc20)"><path fill="#ff3131" d="M 21.398438 64.960938 C 19.441406 64.015625 17.253906 63.46875 14.933594 63.46875 C 6.699219 63.46875 0 70.167969 0 78.402344 C 0 86.636719 6.699219 93.335938 14.933594 93.335938 C 20.101562 93.335938 24.660156 90.695312 27.34375 86.695312 L 41.449219 93.757812 C 41.207031 94.824219 41.066406 95.929688 41.066406 97.070312 C 41.066406 105.300781 47.765625 112.003906 56 112.003906 C 64.234375 112.003906 70.933594 105.300781 70.933594 97.070312 C 70.933594 93.972656 69.988281 91.097656 68.367188 88.710938 L 88.191406 67.984375 C 90.675781 69.828125 93.742188 70.933594 97.070312 70.933594 C 105.300781 70.933594 112.003906 64.234375 112.003906 56 C 112.003906 47.765625 105.300781 41.066406 97.070312 41.066406 C 93.621094 41.066406 90.457031 42.25 87.925781 44.21875 L 67.785156 24.078125 C 69.75 21.546875 70.933594 18.378906 70.933594 14.933594 C 70.933594 6.699219 64.234375 0 56 0 C 47.765625 0 41.066406 6.699219 41.066406 14.933594 C 41.066406 16.070312 41.207031 17.171875 41.449219 18.234375 L 28.210938 23.058594 C 25.726562 18.242188 20.714844 14.933594 14.933594 14.933594 C 6.699219 14.933594 0 21.632812 0 29.867188 C 0 38.101562 6.699219 44.800781 14.933594 44.800781 C 17.058594 44.800781 19.074219 44.347656 20.90625 43.542969 L 27.777344 55.109375 Z M 14.933594 89.601562 C 8.757812 89.601562 3.734375 84.578125 3.734375 78.402344 C 3.734375 72.226562 8.757812 67.203125 14.933594 67.203125 C 21.109375 67.203125 26.132812 72.226562 26.132812 78.402344 C 26.132812 84.578125 21.109375 89.601562 14.933594 89.601562 Z M 29.007812 83.351562 C 29.554688 81.800781 29.867188 80.136719 29.867188 78.402344 C 29.867188 73.824219 27.792969 69.722656 24.539062 66.984375 L 29.90625 58.691406 L 46.09375 85.929688 C 44.730469 87.140625 43.589844 88.59375 42.742188 90.226562 Z M 56 29.867188 C 59.445312 29.867188 62.613281 28.683594 65.144531 26.714844 L 85.289062 46.859375 C 84.078125 48.414062 83.175781 50.207031 82.65625 52.160156 L 70.929688 50.546875 C 70.925781 50.5 70.933594 50.449219 70.933594 50.402344 C 70.933594 42.167969 64.234375 35.46875 56 35.46875 C 50.835938 35.46875 46.273438 38.105469 43.589844 42.105469 L 41.363281 40.996094 L 49.535156 28.375 C 51.496094 29.320312 53.683594 29.867188 56 29.867188 Z M 57.867188 82.265625 L 57.867188 65.203125 C 63.933594 64.441406 68.871094 60.03125 70.414062 54.242188 L 82.140625 55.855469 C 82.140625 55.902344 82.136719 55.953125 82.136719 56 C 82.136719 59.566406 83.394531 62.839844 85.484375 65.410156 L 65.886719 85.902344 C 63.6875 83.957031 60.921875 82.648438 57.867188 82.265625 Z M 56 39.199219 C 62.179688 39.199219 67.203125 44.222656 67.203125 50.402344 C 67.203125 56.578125 62.179688 61.601562 56 61.601562 C 49.824219 61.601562 44.800781 56.578125 44.800781 50.402344 C 44.800781 44.222656 49.824219 39.199219 56 39.199219 Z M 41.929688 45.453125 C 41.382812 47.003906 41.066406 48.664062 41.066406 50.402344 C 41.066406 58.003906 46.78125 64.28125 54.132812 65.207031 L 54.132812 82.265625 C 52.363281 82.488281 50.695312 83.019531 49.171875 83.804688 L 32.171875 55.191406 L 39.320312 44.148438 Z M 56 108.269531 C 49.824219 108.269531 44.800781 103.246094 44.800781 97.070312 C 44.800781 90.890625 49.824219 85.867188 56 85.867188 C 62.179688 85.867188 67.203125 90.890625 67.203125 97.070312 C 67.203125 103.246094 62.179688 108.269531 56 108.269531 Z M 97.070312 44.800781 C 103.246094 44.800781 108.269531 49.824219 108.269531 56 C 108.269531 62.179688 103.246094 67.203125 97.070312 67.203125 C 90.890625 67.203125 85.867188 62.179688 85.867188 56 C 85.867188 49.824219 90.890625 44.800781 97.070312 44.800781 Z M 56 3.734375 C 62.179688 3.734375 67.203125 8.757812 67.203125 14.933594 C 67.203125 21.109375 62.179688 26.132812 56 26.132812 C 49.824219 26.132812 44.800781 21.109375 44.800781 14.933594 C 44.800781 8.757812 49.824219 3.734375 56 3.734375 Z M 42.726562 21.742188 C 43.636719 23.511719 44.886719 25.078125 46.398438 26.351562 L 38.003906 39.316406 L 29.007812 34.816406 C 29.554688 33.265625 29.867188 31.601562 29.867188 29.867188 C 29.867188 28.730469 29.730469 27.628906 29.488281 26.566406 Z M 3.734375 29.867188 C 3.734375 23.691406 8.757812 18.667969 14.933594 18.667969 C 21.109375 18.667969 26.132812 23.691406 26.132812 29.867188 C 26.132812 36.042969 21.109375 41.066406 14.933594 41.066406 C 8.757812 41.066406 3.734375 36.042969 3.734375 29.867188 Z M 24.109375 41.625 C 25.359375 40.648438 26.457031 39.484375 27.34375 38.160156 L 35.960938 42.46875 L 30.042969 51.609375 Z M 24.109375 41.625 " fill-opacity="1" fill-rule="nonzero"/></g></svg>