<svg xmlns="http://www.w3.org/2000/svg" xmlns:xlink="http://www.w3.org/1999/xlink" width="150" zoomAndPan="magnify" viewBox="0 0 112.5 112.499997" height="150" preserveAspectRatio="xMidYMid meet" version="1.0"><path fill="#00bf63" d="M 45.589844 82.898438 L 55.347656 60.867188 L 38.894531 56.046875 L 41.996094 50.238281 L 59.554688 17.28125 L 54.390625 46.15625 L 74.066406 52.125 L 41.640625 91.824219 Z M 45.589844 82.898438 " fill-opacity="1" fill-rule="nonzero"/><path fill="#7ed957" d="M 101.625 16.023438 C 102.652344 16.164062 103.378906 17.113281 103.238281 18.140625 L 102.246094 25.460938 C 102.03125 27.046875 100.605469 28.171875 99.011719 28.03125 L 91.308594 27.320312 C 90.378906 27.234375 89.6875 26.453125 89.6875 25.550781 C 89.6875 25.472656 89.699219 25.390625 89.707031 25.3125 C 89.839844 24.335938 90.734375 23.648438 91.707031 23.78125 L 95.640625 24.320312 C 85.925781 12.480469 70.890625 5.175781 54.1875 6.058594 C 28.878906 7.398438 8.34375 27.878906 6.9375 53.1875 C 6.589844 59.261719 7.34375 65.125 9 70.589844 L 4.574219 72.660156 C 2.730469 66.859375 1.828125 60.644531 2.039062 54.1875 C 2.980469 26.003906 25.550781 2.835938 53.703125 1.234375 C 71.933594 0.199219 88.371094 8.0625 99.074219 20.875 C 99.074219 20.875 99.324219 19.085938 99.519531 17.625 C 99.652344 16.6875 100.449219 16.003906 101.367188 16.003906 C 101.449219 16.003906 101.539062 16.011719 101.625 16.023438 Z M 101.625 16.023438 " fill-opacity="1" fill-rule="nonzero"/><path fill="#ffde59" d="M 109.257812 39.4375 C 111.101562 45.234375 112.003906 51.453125 111.792969 57.90625 C 110.851562 86.09375 88.28125 109.257812 60.128906 110.863281 C 41.898438 111.898438 25.460938 104.035156 14.757812 91.222656 C 14.757812 91.222656 14.5 93.089844 14.304688 94.558594 C 14.171875 95.535156 13.269531 96.214844 12.292969 96.082031 L 12.109375 96.054688 C 11.132812 95.921875 10.453125 95.027344 10.578125 94.054688 L 11.585938 86.632812 C 11.796875 85.050781 13.222656 83.925781 14.816406 84.066406 L 22.523438 84.773438 C 23.453125 84.863281 24.144531 85.640625 24.144531 86.546875 C 24.144531 86.625 24.132812 86.703125 24.125 86.785156 C 23.992188 87.757812 23.097656 88.449219 22.125 88.316406 L 18.191406 87.777344 C 27.90625 99.617188 42.941406 106.921875 59.644531 106.035156 C 84.953125 104.699219 105.488281 84.214844 106.894531 58.910156 C 107.238281 52.832031 106.488281 46.972656 104.832031 41.507812 Z M 109.257812 39.4375 " fill-opacity="1" fill-rule="nonzero"/></svg>