<svg xmlns="http://www.w3.org/2000/svg" xmlns:xlink="http://www.w3.org/1999/xlink" width="150" zoomAndPan="magnify" viewBox="0 0 112.5 112.499997" height="150" preserveAspectRatio="xMidYMid meet" version="1.0"><defs><clipPath id="4ba87e5044"><path d="M 36 77 L 72 77 L 72 112.003906 L 36 112.003906 Z M 36 77 " clip-rule="nonzero"/></clipPath><clipPath id="361c85c66f"><path d="M 3.003906 79 L 16 79 L 16 93 L 3.003906 93 Z M 3.003906 79 " clip-rule="nonzero"/></clipPath></defs><path fill="#38b6ff" d="M 54.191406 60.367188 C 54.15625 60.367188 54.125 60.367188 54.09375 60.363281 C 53.804688 60.386719 53.507812 60.316406 53.25 60.160156 L 20.132812 40.289062 C 19.691406 40.027344 19.425781 39.550781 19.425781 39.039062 C 19.429688 38.523438 19.699219 38.050781 20.136719 37.789062 L 53.351562 18.113281 C 53.808594 17.84375 54.375 17.84375 54.832031 18.113281 L 88.230469 37.789062 C 88.671875 38.046875 88.945312 38.523438 88.949219 39.039062 C 88.949219 39.554688 88.679688 40.027344 88.238281 40.289062 L 54.933594 60.160156 C 54.707031 60.300781 54.449219 60.367188 54.191406 60.367188 Z M 23.71875 39.050781 L 54.09375 57.277344 L 84.640625 39.054688 L 54.09375 21.058594 Z M 23.71875 39.050781 " fill-opacity="1" fill-rule="nonzero"/><path fill="#38b6ff" d="M 68.773438 89.570312 C 68.597656 89.570312 68.421875 89.535156 68.253906 89.472656 C 67.894531 89.335938 67.601562 89.058594 67.441406 88.707031 C 65.113281 83.476562 59.910156 80.097656 54.191406 80.097656 C 48.519531 80.097656 43.332031 83.433594 40.984375 88.601562 C 40.652344 89.328125 39.796875 89.652344 39.066406 89.328125 L 20.285156 80.964844 C 19.761719 80.730469 19.421875 80.210938 19.421875 79.636719 L 19.421875 39.042969 C 19.421875 38.519531 19.707031 38.035156 20.160156 37.777344 C 20.613281 37.519531 21.175781 37.527344 21.625 37.796875 L 54.09375 57.277344 L 86.746094 37.796875 C 87.195312 37.527344 87.753906 37.523438 88.207031 37.78125 C 88.660156 38.039062 88.945312 38.523438 88.945312 39.046875 L 88.945312 79.636719 C 88.945312 80.207031 88.613281 80.726562 88.089844 80.960938 L 69.371094 89.441406 C 69.179688 89.527344 68.976562 89.570312 68.773438 89.570312 Z M 54.191406 77.1875 C 60.570312 77.1875 66.40625 80.683594 69.449219 86.210938 L 86.039062 78.695312 L 86.039062 41.605469 L 54.933594 60.164062 C 54.675781 60.316406 54.382812 60.386719 54.089844 60.363281 C 53.800781 60.386719 53.503906 60.316406 53.246094 60.160156 L 22.332031 41.613281 L 22.332031 78.691406 L 38.988281 86.109375 C 42.046875 80.644531 47.863281 77.1875 54.191406 77.1875 Z M 54.191406 77.1875 " fill-opacity="1" fill-rule="nonzero"/><path fill="#38b6ff" d="M 54.191406 80.097656 C 53.386719 80.097656 52.734375 79.445312 52.734375 78.640625 L 52.734375 58.914062 C 52.734375 58.109375 53.386719 57.457031 54.191406 57.457031 C 54.992188 57.457031 55.644531 58.109375 55.644531 58.914062 L 55.644531 78.640625 C 55.644531 79.445312 54.992188 80.097656 54.191406 80.097656 Z M 54.191406 80.097656 " fill-opacity="1" fill-rule="nonzero"/><g clip-path="url(#4ba87e5044)"><path fill="#38b6ff" d="M 54.191406 112.003906 C 44.589844 112.003906 36.78125 104.195312 36.78125 94.59375 C 36.78125 84.996094 44.589844 77.1875 54.191406 77.1875 C 63.789062 77.1875 71.597656 84.996094 71.597656 94.59375 C 71.597656 104.195312 63.789062 112.003906 54.191406 112.003906 Z M 54.191406 80.097656 C 46.195312 80.097656 39.691406 86.597656 39.691406 94.59375 C 39.691406 102.589844 46.195312 109.09375 54.191406 109.09375 C 62.183594 109.09375 68.6875 102.589844 68.6875 94.59375 C 68.6875 86.597656 62.183594 80.097656 54.191406 80.097656 Z M 54.191406 80.097656 " fill-opacity="1" fill-rule="nonzero"/></g><path fill="#38b6ff" d="M 47.5 96.050781 C 47.308594 96.050781 47.117188 96.039062 46.925781 96.015625 C 46.128906 95.921875 45.558594 95.199219 45.652344 94.398438 C 45.746094 93.601562 46.46875 93.035156 47.269531 93.125 C 47.34375 93.136719 47.421875 93.136719 47.5 93.136719 C 48.582031 93.136719 49.46875 92.257812 49.46875 91.171875 C 49.46875 90.085938 48.585938 89.207031 47.5 89.207031 C 46.8125 89.207031 46.167969 89.570312 45.816406 90.15625 C 45.402344 90.847656 44.507812 91.070312 43.820312 90.65625 C 43.132812 90.242188 42.910156 89.347656 43.324219 88.660156 C 44.199219 87.203125 45.800781 86.296875 47.5 86.296875 C 50.1875 86.296875 52.375 88.484375 52.375 91.171875 C 52.375 93.859375 50.191406 96.050781 47.5 96.050781 Z M 47.5 96.050781 " fill-opacity="1" fill-rule="nonzero"/><path fill="#38b6ff" d="M 47.5 102.890625 C 45.800781 102.890625 44.199219 101.988281 43.324219 100.527344 C 42.910156 99.839844 43.132812 98.949219 43.820312 98.535156 C 44.511719 98.121094 45.402344 98.34375 45.816406 99.03125 C 46.167969 99.621094 46.816406 99.984375 47.5 99.984375 C 48.582031 99.984375 49.46875 99.101562 49.46875 98.015625 C 49.46875 96.929688 48.585938 96.050781 47.5 96.050781 C 47.421875 96.050781 47.347656 96.054688 47.269531 96.0625 C 46.476562 96.15625 45.746094 95.589844 45.652344 94.792969 C 45.558594 93.992188 46.128906 93.269531 46.925781 93.175781 C 47.113281 93.152344 47.308594 93.140625 47.5 93.140625 C 50.1875 93.140625 52.375 95.328125 52.375 98.015625 C 52.375 100.699219 50.191406 102.890625 47.5 102.890625 Z M 47.5 102.890625 " fill-opacity="1" fill-rule="nonzero"/><path fill="#38b6ff" d="M 56.96875 102.890625 L 56.027344 102.890625 C 55.222656 102.890625 54.570312 102.238281 54.570312 101.4375 L 54.570312 87.753906 C 54.570312 86.949219 55.222656 86.296875 56.027344 86.296875 L 56.96875 86.296875 C 61.542969 86.296875 65.265625 90.019531 65.265625 94.59375 C 65.265625 99.167969 61.542969 102.890625 56.96875 102.890625 Z M 57.484375 89.234375 L 57.484375 99.957031 C 60.214844 99.699219 62.355469 97.394531 62.355469 94.597656 C 62.355469 91.800781 60.214844 89.492188 57.484375 89.234375 Z M 57.484375 89.234375 " fill-opacity="1" fill-rule="nonzero"/><path fill="#38b6ff" d="M 54.089844 20.820312 C 53.289062 20.820312 52.636719 20.171875 52.636719 19.367188 L 52.636719 11.199219 C 52.636719 10.398438 53.289062 9.746094 54.089844 9.746094 C 54.894531 9.746094 55.546875 10.398438 55.546875 11.199219 L 55.546875 19.367188 C 55.546875 20.171875 54.898438 20.820312 54.089844 20.820312 Z M 54.089844 20.820312 " fill-opacity="1" fill-rule="nonzero"/><path fill="#38b6ff" d="M 54.089844 12.65625 C 50.601562 12.65625 47.761719 9.816406 47.761719 6.324219 C 47.761719 2.832031 50.597656 -0.0078125 54.089844 -0.0078125 C 57.582031 -0.0078125 60.421875 2.832031 60.421875 6.324219 C 60.421875 9.816406 57.582031 12.65625 54.089844 12.65625 Z M 54.089844 2.902344 C 52.207031 2.902344 50.667969 4.441406 50.667969 6.324219 C 50.667969 8.210938 52.207031 9.75 54.089844 9.75 C 55.976562 9.75 57.511719 8.210938 57.511719 6.324219 C 57.511719 4.441406 55.976562 2.902344 54.089844 2.902344 Z M 54.089844 2.902344 " fill-opacity="1" fill-rule="nonzero"/><path fill="#38b6ff" d="M 94.5625 85.171875 C 94.316406 85.171875 94.066406 85.109375 93.839844 84.976562 L 86.765625 80.894531 C 86.070312 80.492188 85.832031 79.605469 86.234375 78.90625 C 86.632812 78.210938 87.523438 77.972656 88.21875 78.375 L 95.292969 82.457031 C 95.988281 82.859375 96.226562 83.746094 95.828125 84.445312 C 95.554688 84.910156 95.066406 85.171875 94.5625 85.171875 Z M 94.5625 85.171875 " fill-opacity="1" fill-rule="nonzero"/><path fill="#38b6ff" d="M 98.777344 92.488281 C 97.679688 92.488281 96.597656 92.199219 95.621094 91.636719 C 94.15625 90.792969 93.109375 89.425781 92.671875 87.792969 C 92.234375 86.160156 92.460938 84.453125 93.304688 82.992188 C 94.148438 81.527344 95.511719 80.476562 97.148438 80.039062 C 98.777344 79.605469 100.484375 79.828125 101.949219 80.671875 C 104.972656 82.417969 106.015625 86.296875 104.265625 89.320312 C 103.421875 90.785156 102.058594 91.832031 100.421875 92.269531 C 99.878906 92.417969 99.328125 92.488281 98.777344 92.488281 Z M 98.792969 82.734375 C 98.496094 82.734375 98.199219 82.773438 97.902344 82.855469 C 97.019531 83.089844 96.28125 83.65625 95.828125 84.449219 C 95.371094 85.238281 95.25 86.160156 95.484375 87.042969 C 95.722656 87.925781 96.289062 88.664062 97.078125 89.121094 C 97.871094 89.578125 98.792969 89.699219 99.675781 89.460938 C 100.558594 89.226562 101.296875 88.660156 101.753906 87.871094 C 102.210938 87.078125 102.332031 86.15625 102.09375 85.273438 C 101.855469 84.390625 101.292969 83.652344 100.5 83.195312 C 99.972656 82.890625 99.386719 82.734375 98.792969 82.734375 Z M 98.792969 82.734375 " fill-opacity="1" fill-rule="nonzero"/><path fill="#38b6ff" d="M 13.804688 85.171875 C 13.304688 85.171875 12.8125 84.910156 12.546875 84.445312 C 12.144531 83.75 12.382812 82.859375 13.078125 82.457031 L 20.152344 78.375 C 20.847656 77.972656 21.738281 78.210938 22.140625 78.90625 C 22.542969 79.601562 22.304688 80.492188 21.605469 80.894531 L 14.535156 84.976562 C 14.304688 85.113281 14.054688 85.171875 13.804688 85.171875 Z M 13.804688 85.171875 " fill-opacity="1" fill-rule="nonzero"/><g clip-path="url(#361c85c66f)"><path fill="#38b6ff" d="M 9.59375 92.488281 C 9.042969 92.488281 8.488281 92.414062 7.945312 92.269531 C 6.3125 91.832031 4.945312 90.785156 4.101562 89.320312 C 3.253906 87.855469 3.03125 86.148438 3.46875 84.515625 C 3.90625 82.882812 4.953125 81.519531 6.417969 80.671875 C 9.441406 78.925781 13.320312 79.96875 15.066406 82.988281 C 15.914062 84.453125 16.136719 86.15625 15.699219 87.792969 C 15.261719 89.425781 14.210938 90.789062 12.75 91.632812 C 11.773438 92.199219 10.691406 92.488281 9.59375 92.488281 Z M 9.574219 82.734375 C 8.996094 82.734375 8.410156 82.882812 7.871094 83.191406 C 7.082031 83.648438 6.515625 84.386719 6.277344 85.269531 C 6.039062 86.152344 6.160156 87.074219 6.617188 87.867188 C 7.074219 88.65625 7.8125 89.226562 8.699219 89.460938 C 9.578125 89.699219 10.503906 89.578125 11.292969 89.121094 C 12.082031 88.664062 12.652344 87.925781 12.886719 87.039062 C 13.121094 86.15625 13.003906 85.238281 12.546875 84.445312 C 11.914062 83.347656 10.761719 82.734375 9.574219 82.734375 Z M 9.574219 82.734375 " fill-opacity="1" fill-rule="nonzero"/></g></svg>