<svg xmlns="http://www.w3.org/2000/svg" xmlns:xlink="http://www.w3.org/1999/xlink" width="150" zoomAndPan="magnify" viewBox="0 0 112.5 112.499997" height="150" preserveAspectRatio="xMidYMid meet" version="1.0"><defs><clipPath id="d3998ed1c5"><path d="M 10.429688 0 L 101.523438 0 L 101.523438 112.003906 L 10.429688 112.003906 Z M 10.429688 0 " clip-rule="nonzero"/></clipPath></defs><g clip-path="url(#d3998ed1c5)"><path fill="#205375" d="M 29.699219 0.277344 C 18.933594 0.277344 10.167969 9.039062 10.167969 19.804688 L 10.167969 30.222656 C 10.167969 40.988281 18.933594 49.753906 29.699219 49.753906 C 40.46875 49.753906 49.230469 40.988281 49.230469 30.222656 L 49.230469 19.804688 C 49.230469 9.039062 40.46875 0.277344 29.699219 0.277344 Z M 41.417969 30.222656 C 41.417969 36.683594 36.160156 41.941406 29.699219 41.941406 C 23.242188 41.941406 17.980469 36.683594 17.980469 30.222656 L 17.980469 19.804688 C 17.980469 13.347656 23.242188 8.089844 29.699219 8.089844 C 36.160156 8.089844 41.417969 13.347656 41.417969 19.804688 Z M 81.78125 62.773438 C 71.015625 62.773438 62.25 71.535156 62.25 82.304688 L 62.25 92.71875 C 62.25 103.488281 71.015625 112.25 81.78125 112.25 C 92.546875 112.25 101.3125 103.488281 101.3125 92.71875 L 101.3125 82.304688 C 101.3125 71.535156 92.546875 62.773438 81.78125 62.773438 Z M 93.5 92.71875 C 93.5 99.179688 88.242188 104.4375 81.78125 104.4375 C 75.320312 104.4375 70.0625 99.179688 70.0625 92.71875 L 70.0625 82.304688 C 70.0625 75.84375 75.320312 70.585938 81.78125 70.585938 C 88.242188 70.585938 93.5 75.84375 93.5 82.304688 Z M 62.25 45.847656 C 62.25 43.691406 64 41.941406 66.15625 41.941406 L 77.875 41.941406 L 77.875 10.503906 L 73.109375 12.882812 C 71.175781 13.84375 68.835938 13.066406 67.871094 11.132812 C 66.90625 9.207031 67.6875 6.863281 69.621094 5.894531 L 80.035156 0.6875 C 81.238281 0.0820312 82.675781 0.136719 83.835938 0.859375 C 84.984375 1.574219 85.6875 2.828125 85.6875 4.183594 L 85.6875 41.941406 L 97.40625 41.941406 C 99.5625 41.941406 101.3125 43.691406 101.3125 45.847656 C 101.3125 48.003906 99.5625 49.753906 97.40625 49.753906 L 66.15625 49.753906 C 64 49.753906 62.25 48.003906 62.25 45.847656 Z M 49.230469 108.34375 C 49.230469 110.5 47.480469 112.25 45.324219 112.25 L 14.074219 112.25 C 11.917969 112.25 10.167969 110.5 10.167969 108.34375 C 10.167969 106.1875 11.917969 104.4375 14.074219 104.4375 L 25.792969 104.4375 L 25.792969 73 L 21.027344 75.382812 C 19.101562 76.34375 16.757812 75.566406 15.789062 73.632812 C 14.824219 71.703125 15.605469 69.359375 17.539062 68.394531 L 27.957031 63.183594 C 29.160156 62.578125 30.59375 62.640625 31.753906 63.359375 C 32.90625 64.070312 33.605469 65.328125 33.605469 66.679688 L 33.605469 104.4375 L 45.324219 104.4375 C 47.480469 104.4375 49.230469 106.1875 49.230469 108.34375 Z M 49.230469 108.34375 " fill-opacity="1" fill-rule="nonzero"/></g></svg>