<svg xmlns="http://www.w3.org/2000/svg" xmlns:xlink="http://www.w3.org/1999/xlink" width="150" zoomAndPan="magnify" viewBox="0 0 112.5 112.499997" height="150" preserveAspectRatio="xMidYMid meet" version="1.0"><defs><clipPath id="cdbb256f45"><path d="M 0 0 L 112.003906 0 L 112.003906 112.003906 L 0 112.003906 Z M 0 0 " clip-rule="nonzero"/></clipPath></defs><g clip-path="url(#cdbb256f45)"><path fill="#efefef" d="M 56 0 C 54.167969 0 52.335938 0.0898438 50.511719 0.269531 C 48.6875 0.449219 46.875 0.71875 45.074219 1.074219 C 43.277344 1.433594 41.5 1.878906 39.746094 2.410156 C 37.988281 2.945312 36.265625 3.5625 34.570312 4.261719 C 32.875 4.964844 31.21875 5.746094 29.601562 6.613281 C 27.984375 7.476562 26.414062 8.417969 24.886719 9.4375 C 23.363281 10.457031 21.890625 11.546875 20.472656 12.710938 C 19.054688 13.875 17.699219 15.105469 16.402344 16.402344 C 15.105469 17.699219 13.875 19.054688 12.710938 20.472656 C 11.546875 21.890625 10.457031 23.363281 9.4375 24.886719 C 8.417969 26.414062 7.476562 27.984375 6.613281 29.601562 C 5.746094 31.21875 4.964844 32.875 4.261719 34.570312 C 3.5625 36.265625 2.945312 37.988281 2.410156 39.746094 C 1.878906 41.5 1.433594 43.277344 1.074219 45.074219 C 0.71875 46.875 0.449219 48.6875 0.269531 50.511719 C 0.0898438 52.335938 0 54.167969 0 56 C 0 57.835938 0.0898438 59.664062 0.269531 61.488281 C 0.449219 63.316406 0.71875 65.128906 1.074219 66.925781 C 1.433594 68.726562 1.878906 70.503906 2.410156 72.257812 C 2.945312 74.011719 3.5625 75.738281 4.261719 77.433594 C 4.964844 79.125 5.746094 80.78125 6.613281 82.398438 C 7.476562 84.015625 8.417969 85.589844 9.4375 87.113281 C 10.457031 88.636719 11.546875 90.109375 12.710938 91.527344 C 13.875 92.945312 15.105469 94.304688 16.402344 95.601562 C 17.699219 96.898438 19.054688 98.128906 20.472656 99.289062 C 21.890625 100.453125 23.363281 101.546875 24.886719 102.5625 C 26.414062 103.582031 27.984375 104.523438 29.601562 105.390625 C 31.21875 106.253906 32.875 107.039062 34.570312 107.738281 C 36.265625 108.441406 37.988281 109.058594 39.746094 109.589844 C 41.5 110.125 43.277344 110.566406 45.074219 110.925781 C 46.875 111.285156 48.6875 111.554688 50.511719 111.734375 C 52.335938 111.914062 54.167969 112.003906 56 112.003906 C 57.835938 112.003906 59.664062 111.914062 61.488281 111.734375 C 63.316406 111.554688 65.128906 111.285156 66.925781 110.925781 C 68.726562 110.566406 70.503906 110.125 72.257812 109.589844 C 74.011719 109.058594 75.738281 108.441406 77.433594 107.738281 C 79.125 107.039062 80.78125 106.253906 82.398438 105.390625 C 84.015625 104.523438 85.589844 103.582031 87.113281 102.5625 C 88.636719 101.546875 90.109375 100.453125 91.527344 99.289062 C 92.945312 98.128906 94.304688 96.898438 95.601562 95.601562 C 96.898438 94.304688 98.128906 92.945312 99.289062 91.527344 C 100.453125 90.109375 101.546875 88.636719 102.5625 87.113281 C 103.582031 85.589844 104.523438 84.015625 105.390625 82.398438 C 106.253906 80.78125 107.039062 79.125 107.738281 77.433594 C 108.441406 75.738281 109.058594 74.011719 109.589844 72.257812 C 110.125 70.503906 110.566406 68.726562 110.925781 66.925781 C 111.285156 65.128906 111.554688 63.316406 111.734375 61.488281 C 111.914062 59.664062 112.003906 57.835938 112.003906 56 C 112 54.167969 111.910156 52.335938 111.730469 50.511719 C 111.550781 48.6875 111.28125 46.875 110.921875 45.078125 C 110.5625 43.277344 110.117188 41.503906 109.585938 39.746094 C 109.050781 37.992188 108.433594 36.269531 107.730469 34.574219 C 107.03125 32.878906 106.246094 31.226562 105.382812 29.609375 C 104.515625 27.992188 103.574219 26.417969 102.554688 24.894531 C 101.535156 23.371094 100.445312 21.898438 99.28125 20.480469 C 98.117188 19.0625 96.890625 17.707031 95.59375 16.410156 C 94.296875 15.113281 92.9375 13.882812 91.519531 12.71875 C 90.101562 11.554688 88.632812 10.464844 87.105469 9.445312 C 85.582031 8.425781 84.011719 7.484375 82.394531 6.621094 C 80.777344 5.753906 79.121094 4.972656 77.425781 4.269531 C 75.734375 3.566406 74.007812 2.949219 72.253906 2.417969 C 70.5 1.882812 68.722656 1.4375 66.925781 1.082031 C 65.125 0.722656 63.3125 0.453125 61.488281 0.273438 C 59.664062 0.0898438 57.835938 0 56 0 Z M 56 108.140625 C 54.292969 108.140625 52.589844 108.054688 50.890625 107.890625 C 49.191406 107.722656 47.503906 107.472656 45.828125 107.136719 C 44.15625 106.804688 42.5 106.390625 40.867188 105.894531 C 39.230469 105.398438 37.625 104.824219 36.046875 104.171875 C 34.472656 103.519531 32.929688 102.789062 31.421875 101.984375 C 29.917969 101.179688 28.453125 100.300781 27.035156 99.351562 C 25.613281 98.40625 24.246094 97.386719 22.925781 96.304688 C 21.605469 95.222656 20.339844 94.078125 19.132812 92.867188 C 17.925781 91.660156 16.78125 90.398438 15.695312 89.078125 C 14.613281 87.757812 13.597656 86.386719 12.648438 84.96875 C 11.699219 83.546875 10.824219 82.085938 10.019531 80.578125 C 9.214844 79.074219 8.484375 77.53125 7.832031 75.953125 C 7.175781 74.375 6.601562 72.769531 6.105469 71.136719 C 5.613281 69.503906 5.195312 67.847656 4.863281 66.171875 C 4.53125 64.5 4.28125 62.8125 4.113281 61.113281 C 3.945312 59.414062 3.863281 57.707031 3.863281 56 C 3.863281 54.292969 3.945312 52.589844 4.113281 50.890625 C 4.28125 49.191406 4.53125 47.503906 4.863281 45.828125 C 5.195312 44.15625 5.613281 42.5 6.105469 40.867188 C 6.601562 39.230469 7.175781 37.625 7.832031 36.046875 C 8.484375 34.472656 9.214844 32.929688 10.019531 31.421875 C 10.824219 29.917969 11.699219 28.453125 12.648438 27.035156 C 13.597656 25.613281 14.613281 24.246094 15.695312 22.925781 C 16.78125 21.605469 17.925781 20.339844 19.132812 19.132812 C 20.339844 17.925781 21.605469 16.78125 22.925781 15.695312 C 24.246094 14.613281 25.613281 13.597656 27.035156 12.648438 C 28.453125 11.699219 29.917969 10.824219 31.421875 10.019531 C 32.929688 9.214844 34.472656 8.484375 36.046875 7.832031 C 37.625 7.175781 39.230469 6.601562 40.867188 6.105469 C 42.5 5.613281 44.15625 5.195312 45.828125 4.863281 C 47.503906 4.53125 49.191406 4.28125 50.890625 4.113281 C 52.589844 3.945312 54.292969 3.863281 56 3.863281 C 57.707031 3.863281 59.414062 3.945312 61.113281 4.113281 C 62.8125 4.28125 64.5 4.53125 66.171875 4.863281 C 67.847656 5.195312 69.503906 5.613281 71.136719 6.105469 C 72.769531 6.601562 74.375 7.175781 75.953125 7.832031 C 77.53125 8.484375 79.074219 9.214844 80.578125 10.019531 C 82.085938 10.824219 83.546875 11.699219 84.96875 12.648438 C 86.386719 13.597656 87.757812 14.613281 89.078125 15.695312 C 90.398438 16.78125 91.660156 17.925781 92.867188 19.132812 C 94.078125 20.339844 95.222656 21.605469 96.304688 22.925781 C 97.386719 24.246094 98.40625 25.613281 99.351562 27.035156 C 100.300781 28.453125 101.179688 29.917969 101.984375 31.421875 C 102.789062 32.929688 103.519531 34.472656 104.171875 36.046875 C 104.824219 37.625 105.398438 39.230469 105.894531 40.867188 C 106.390625 42.5 106.804688 44.15625 107.136719 45.828125 C 107.472656 47.503906 107.722656 49.191406 107.890625 50.890625 C 108.054688 52.589844 108.140625 54.292969 108.140625 56 C 108.140625 57.707031 108.054688 59.410156 107.886719 61.109375 C 107.71875 62.808594 107.46875 64.496094 107.132812 66.171875 C 106.800781 67.847656 106.386719 69.5 105.890625 71.132812 C 105.394531 72.765625 104.820312 74.371094 104.164062 75.949219 C 103.511719 77.527344 102.78125 79.070312 101.976562 80.574219 C 101.171875 82.082031 100.292969 83.542969 99.347656 84.960938 C 98.398438 86.382812 97.382812 87.75 96.296875 89.070312 C 95.214844 90.390625 94.070312 91.65625 92.863281 92.863281 C 91.65625 94.070312 90.390625 95.214844 89.070312 96.296875 C 87.75 97.382812 86.382812 98.398438 84.960938 99.347656 C 83.542969 100.292969 82.082031 101.171875 80.574219 101.976562 C 79.070312 102.78125 77.527344 103.511719 75.949219 104.164062 C 74.371094 104.820312 72.765625 105.394531 71.132812 105.890625 C 69.5 106.386719 67.847656 106.800781 66.171875 107.132812 C 64.496094 107.46875 62.808594 107.71875 61.109375 107.886719 C 59.410156 108.054688 57.707031 108.140625 56 108.140625 Z M 56 108.140625 " fill-opacity="1" fill-rule="evenodd"/></g><path fill="#efefef" d="M 74.019531 50.179688 C 73.867188 49.820312 73.632812 49.53125 73.304688 49.316406 C 72.980469 49.097656 72.625 48.992188 72.234375 48.992188 L 62.265625 48.992188 L 67.234375 40.46875 C 67.410156 40.167969 67.496094 39.847656 67.496094 39.5 C 67.496094 39.15625 67.410156 38.835938 67.238281 38.535156 C 67.066406 38.234375 66.832031 38 66.535156 37.828125 C 66.234375 37.652344 65.914062 37.566406 65.566406 37.566406 L 51.167969 37.566406 C 50.832031 37.566406 50.515625 37.648438 50.222656 37.8125 C 49.925781 37.980469 49.691406 38.207031 49.515625 38.492188 L 39.164062 55.53125 C 38.984375 55.828125 38.890625 56.152344 38.886719 56.5 C 38.882812 56.847656 38.964844 57.171875 39.136719 57.476562 C 39.304688 57.78125 39.542969 58.019531 39.84375 58.195312 C 40.140625 58.371094 40.46875 58.460938 40.816406 58.460938 L 50.152344 58.460938 L 44.683594 76.054688 C 44.554688 76.476562 44.570312 76.894531 44.730469 77.308594 C 44.886719 77.722656 45.15625 78.042969 45.535156 78.269531 C 45.917969 78.5 46.324219 78.585938 46.765625 78.53125 C 47.203125 78.480469 47.582031 78.296875 47.894531 77.984375 L 73.601562 52.277344 C 73.875 52.003906 74.050781 51.675781 74.125 51.292969 C 74.203125 50.910156 74.164062 50.539062 74.019531 50.179688 Z M 50.695312 69.726562 L 54.617188 57.105469 C 54.664062 56.960938 54.691406 56.8125 54.703125 56.664062 C 54.710938 56.511719 54.703125 56.359375 54.679688 56.210938 C 54.65625 56.0625 54.613281 55.917969 54.554688 55.777344 C 54.496094 55.640625 54.421875 55.507812 54.332031 55.386719 C 54.242188 55.265625 54.140625 55.15625 54.023438 55.058594 C 53.90625 54.957031 53.78125 54.875 53.648438 54.808594 C 53.511719 54.738281 53.371094 54.6875 53.222656 54.652344 C 53.078125 54.617188 52.925781 54.597656 52.777344 54.597656 L 44.25 54.597656 L 52.253906 41.429688 L 62.207031 41.429688 L 57.238281 49.949219 C 57.0625 50.246094 56.976562 50.570312 56.972656 50.914062 C 56.972656 51.261719 57.058594 51.585938 57.230469 51.882812 C 57.402344 52.183594 57.636719 52.421875 57.9375 52.59375 C 58.238281 52.765625 58.558594 52.855469 58.90625 52.851562 L 67.585938 52.851562 Z M 50.695312 69.726562 " fill-opacity="1" fill-rule="evenodd"/><path fill="#efefef" d="M 75.769531 40.214844 C 75.589844 40.035156 75.382812 39.894531 75.144531 39.796875 C 74.910156 39.699219 74.660156 39.652344 74.40625 39.652344 C 74.148438 39.652344 73.902344 39.699219 73.667969 39.796875 C 73.429688 39.894531 73.222656 40.035156 73.039062 40.214844 C 72.859375 40.398438 72.71875 40.605469 72.621094 40.84375 C 72.523438 41.078125 72.472656 41.324219 72.472656 41.582031 C 72.472656 41.835938 72.523438 42.082031 72.621094 42.320312 C 72.71875 42.558594 72.855469 42.765625 73.035156 42.945312 C 73.46875 43.378906 73.882812 43.832031 74.269531 44.308594 C 74.65625 44.78125 75.023438 45.273438 75.363281 45.78125 C 75.703125 46.292969 76.015625 46.816406 76.304688 47.355469 C 76.59375 47.894531 76.855469 48.449219 77.089844 49.015625 C 77.324219 49.582031 77.53125 50.15625 77.707031 50.742188 C 77.886719 51.328125 78.035156 51.921875 78.15625 52.523438 C 78.273438 53.125 78.363281 53.730469 78.421875 54.339844 C 78.484375 54.949219 78.515625 55.558594 78.515625 56.171875 C 78.515625 56.785156 78.484375 57.398438 78.421875 58.007812 C 78.363281 58.617188 78.273438 59.222656 78.15625 59.820312 C 78.035156 60.421875 77.886719 61.015625 77.707031 61.601562 C 77.53125 62.1875 77.324219 62.765625 77.089844 63.332031 C 76.855469 63.894531 76.59375 64.449219 76.304688 64.988281 C 76.015625 65.53125 75.703125 66.054688 75.363281 66.5625 C 75.023438 67.074219 74.65625 67.566406 74.269531 68.039062 C 73.882812 68.511719 73.46875 68.964844 73.035156 69.398438 C 72.855469 69.582031 72.71875 69.789062 72.621094 70.027344 C 72.523438 70.261719 72.472656 70.507812 72.472656 70.765625 C 72.476562 71.019531 72.523438 71.265625 72.621094 71.503906 C 72.71875 71.738281 72.859375 71.949219 73.042969 72.128906 C 73.222656 72.308594 73.429688 72.449219 73.667969 72.546875 C 73.902344 72.644531 74.148438 72.695312 74.40625 72.695312 C 74.664062 72.695312 74.910156 72.644531 75.144531 72.546875 C 75.382812 72.449219 75.589844 72.308594 75.769531 72.128906 C 76.292969 71.605469 76.789062 71.058594 77.257812 70.488281 C 77.726562 69.917969 78.164062 69.324219 78.574219 68.710938 C 78.984375 68.09375 79.363281 67.460938 79.714844 66.808594 C 80.0625 66.15625 80.375 65.492188 80.660156 64.808594 C 80.941406 64.125 81.191406 63.429688 81.40625 62.722656 C 81.621094 62.015625 81.796875 61.300781 81.941406 60.574219 C 82.085938 59.851562 82.195312 59.121094 82.265625 58.382812 C 82.339844 57.648438 82.375 56.910156 82.375 56.171875 C 82.375 55.433594 82.339844 54.695312 82.265625 53.960938 C 82.195312 53.226562 82.085938 52.496094 81.941406 51.769531 C 81.796875 51.046875 81.621094 50.332031 81.40625 49.625 C 81.191406 48.917969 80.941406 48.222656 80.660156 47.539062 C 80.375 46.855469 80.0625 46.1875 79.714844 45.535156 C 79.363281 44.882812 78.984375 44.25 78.574219 43.636719 C 78.164062 43.023438 77.726562 42.429688 77.257812 41.859375 C 76.789062 41.285156 76.292969 40.738281 75.769531 40.214844 Z M 75.769531 40.214844 " fill-opacity="1" fill-rule="evenodd"/><path fill="#efefef" d="M 38.964844 42.945312 C 39.144531 42.765625 39.285156 42.558594 39.382812 42.320312 C 39.480469 42.082031 39.53125 41.835938 39.53125 41.582031 C 39.53125 41.324219 39.480469 41.078125 39.382812 40.839844 C 39.285156 40.605469 39.144531 40.394531 38.960938 40.214844 C 38.78125 40.035156 38.574219 39.894531 38.335938 39.796875 C 38.097656 39.699219 37.851562 39.648438 37.597656 39.648438 C 37.339844 39.648438 37.09375 39.699219 36.855469 39.796875 C 36.621094 39.894531 36.410156 40.035156 36.230469 40.214844 C 35.707031 40.738281 35.214844 41.285156 34.746094 41.859375 C 34.277344 42.429688 33.835938 43.023438 33.425781 43.636719 C 33.015625 44.25 32.636719 44.882812 32.289062 45.535156 C 31.941406 46.1875 31.625 46.855469 31.34375 47.539062 C 31.058594 48.222656 30.8125 48.917969 30.597656 49.625 C 30.382812 50.332031 30.203125 51.046875 30.058594 51.769531 C 29.914062 52.496094 29.808594 53.226562 29.734375 53.960938 C 29.664062 54.695312 29.625 55.433594 29.625 56.171875 C 29.625 56.910156 29.664062 57.648438 29.734375 58.382812 C 29.808594 59.121094 29.914062 59.851562 30.058594 60.574219 C 30.203125 61.300781 30.382812 62.015625 30.597656 62.722656 C 30.8125 63.429688 31.058594 64.125 31.34375 64.808594 C 31.625 65.492188 31.941406 66.15625 32.289062 66.808594 C 32.636719 67.460938 33.015625 68.09375 33.425781 68.710938 C 33.835938 69.324219 34.277344 69.917969 34.746094 70.488281 C 35.214844 71.058594 35.707031 71.605469 36.230469 72.128906 C 36.410156 72.3125 36.621094 72.453125 36.855469 72.550781 C 37.09375 72.648438 37.339844 72.699219 37.597656 72.699219 C 37.855469 72.699219 38.101562 72.648438 38.335938 72.550781 C 38.574219 72.453125 38.785156 72.316406 38.964844 72.132812 C 39.148438 71.953125 39.285156 71.742188 39.386719 71.507812 C 39.484375 71.269531 39.53125 71.023438 39.53125 70.765625 C 39.53125 70.507812 39.484375 70.261719 39.386719 70.027344 C 39.285156 69.789062 39.148438 69.578125 38.964844 69.398438 C 38.53125 68.964844 38.121094 68.511719 37.734375 68.039062 C 37.34375 67.566406 36.980469 67.074219 36.640625 66.5625 C 36.300781 66.054688 35.984375 65.53125 35.695312 64.988281 C 35.40625 64.449219 35.144531 63.894531 34.910156 63.332031 C 34.675781 62.765625 34.472656 62.1875 34.292969 61.601562 C 34.117188 61.015625 33.96875 60.421875 33.847656 59.820312 C 33.726562 59.222656 33.636719 58.617188 33.578125 58.007812 C 33.519531 57.398438 33.488281 56.785156 33.488281 56.171875 C 33.488281 55.558594 33.519531 54.949219 33.578125 54.339844 C 33.636719 53.730469 33.726562 53.125 33.847656 52.523438 C 33.96875 51.921875 34.117188 51.328125 34.292969 50.742188 C 34.472656 50.15625 34.675781 49.582031 34.910156 49.015625 C 35.144531 48.449219 35.40625 47.894531 35.695312 47.355469 C 35.984375 46.816406 36.300781 46.292969 36.640625 45.78125 C 36.980469 45.273438 37.34375 44.78125 37.734375 44.308594 C 38.121094 43.832031 38.53125 43.378906 38.964844 42.945312 Z M 38.964844 42.945312 " fill-opacity="1" fill-rule="evenodd"/><path fill="#efefef" d="M 80.332031 32.921875 C 80.152344 33.101562 80.011719 33.3125 79.914062 33.546875 C 79.816406 33.785156 79.765625 34.03125 79.765625 34.285156 C 79.765625 34.542969 79.816406 34.789062 79.914062 35.023438 C 80.011719 35.261719 80.152344 35.46875 80.332031 35.652344 C 81.003906 36.324219 81.640625 37.027344 82.242188 37.761719 C 82.847656 38.496094 83.410156 39.261719 83.9375 40.050781 C 84.464844 40.839844 84.953125 41.65625 85.402344 42.492188 C 85.847656 43.332031 86.253906 44.191406 86.617188 45.066406 C 86.980469 45.945312 87.300781 46.839844 87.578125 47.75 C 87.851562 48.660156 88.082031 49.578125 88.269531 50.511719 C 88.453125 51.445312 88.59375 52.382812 88.6875 53.328125 C 88.777344 54.273438 88.824219 55.222656 88.824219 56.171875 C 88.824219 57.125 88.777344 58.070312 88.6875 59.015625 C 88.59375 59.964844 88.453125 60.902344 88.269531 61.832031 C 88.082031 62.765625 87.851562 63.6875 87.578125 64.597656 C 87.300781 65.503906 86.980469 66.398438 86.617188 67.277344 C 86.253906 68.15625 85.847656 69.015625 85.402344 69.851562 C 84.953125 70.691406 84.464844 71.503906 83.9375 72.296875 C 83.410156 73.085938 82.847656 73.847656 82.242188 74.582031 C 81.640625 75.320312 81.003906 76.023438 80.332031 76.695312 C 80.15625 76.875 80.023438 77.085938 79.929688 77.320312 C 79.835938 77.554688 79.789062 77.800781 79.789062 78.054688 C 79.792969 78.304688 79.84375 78.550781 79.941406 78.78125 C 80.039062 79.015625 80.175781 79.222656 80.355469 79.402344 C 80.535156 79.582031 80.742188 79.71875 80.976562 79.816406 C 81.207031 79.914062 81.453125 79.964844 81.703125 79.96875 C 81.957031 79.96875 82.203125 79.921875 82.4375 79.828125 C 82.671875 79.734375 82.882812 79.601562 83.0625 79.425781 C 83.824219 78.664062 84.546875 77.867188 85.230469 77.035156 C 85.910156 76.199219 86.550781 75.335938 87.148438 74.441406 C 87.75 73.546875 88.300781 72.621094 88.808594 71.671875 C 89.316406 70.722656 89.773438 69.75 90.1875 68.753906 C 90.597656 67.761719 90.960938 66.75 91.273438 65.71875 C 91.585938 64.6875 91.847656 63.644531 92.058594 62.585938 C 92.265625 61.53125 92.425781 60.46875 92.53125 59.394531 C 92.636719 58.324219 92.6875 57.25 92.6875 56.171875 C 92.6875 55.097656 92.636719 54.023438 92.53125 52.949219 C 92.425781 51.878906 92.265625 50.816406 92.058594 49.757812 C 91.847656 48.703125 91.585938 47.660156 91.273438 46.628906 C 90.960938 45.597656 90.597656 44.585938 90.1875 43.589844 C 89.773438 42.59375 89.316406 41.621094 88.808594 40.671875 C 88.300781 39.722656 87.75 38.800781 87.148438 37.90625 C 86.550781 37.007812 85.910156 36.144531 85.230469 35.3125 C 84.546875 34.480469 83.824219 33.683594 83.0625 32.921875 C 82.882812 32.738281 82.671875 32.601562 82.4375 32.503906 C 82.199219 32.40625 81.953125 32.355469 81.699219 32.355469 C 81.441406 32.355469 81.195312 32.40625 80.960938 32.503906 C 80.722656 32.601562 80.515625 32.738281 80.332031 32.921875 Z M 80.332031 32.921875 " fill-opacity="1" fill-rule="evenodd"/><path fill="#efefef" d="M 31.667969 35.652344 C 31.84375 35.46875 31.980469 35.261719 32.074219 35.027344 C 32.167969 34.789062 32.214844 34.546875 32.210938 34.292969 C 32.210938 34.039062 32.160156 33.796875 32.0625 33.5625 C 31.964844 33.328125 31.824219 33.125 31.644531 32.945312 C 31.46875 32.765625 31.261719 32.628906 31.027344 32.527344 C 30.792969 32.429688 30.550781 32.382812 30.296875 32.378906 C 30.042969 32.375 29.800781 32.421875 29.566406 32.515625 C 29.328125 32.609375 29.121094 32.746094 28.9375 32.921875 C 28.179688 33.683594 27.457031 34.480469 26.773438 35.3125 C 26.089844 36.144531 25.449219 37.007812 24.851562 37.90625 C 24.253906 38.800781 23.703125 39.722656 23.195312 40.671875 C 22.6875 41.621094 22.226562 42.59375 21.816406 43.589844 C 21.402344 44.585938 21.042969 45.597656 20.730469 46.628906 C 20.417969 47.660156 20.15625 48.703125 19.945312 49.757812 C 19.734375 50.816406 19.578125 51.878906 19.472656 52.949219 C 19.367188 54.023438 19.3125 55.097656 19.3125 56.171875 C 19.3125 57.25 19.367188 58.324219 19.472656 59.394531 C 19.578125 60.46875 19.734375 61.53125 19.945312 62.585938 C 20.15625 63.644531 20.417969 64.6875 20.730469 65.71875 C 21.042969 66.75 21.402344 67.761719 21.816406 68.753906 C 22.226562 69.75 22.6875 70.722656 23.195312 71.671875 C 23.703125 72.621094 24.253906 73.546875 24.851562 74.441406 C 25.449219 75.335938 26.089844 76.199219 26.773438 77.035156 C 27.457031 77.867188 28.179688 78.664062 28.9375 79.425781 C 29.121094 79.601562 29.328125 79.734375 29.566406 79.828125 C 29.800781 79.921875 30.042969 79.96875 30.296875 79.96875 C 30.550781 79.964844 30.792969 79.914062 31.027344 79.816406 C 31.261719 79.71875 31.46875 79.582031 31.644531 79.402344 C 31.824219 79.222656 31.964844 79.015625 32.0625 78.78125 C 32.160156 78.550781 32.210938 78.304688 32.210938 78.054688 C 32.214844 77.800781 32.167969 77.554688 32.074219 77.320312 C 31.980469 77.085938 31.84375 76.875 31.667969 76.695312 C 30.996094 76.023438 30.359375 75.320312 29.757812 74.582031 C 29.15625 73.847656 28.589844 73.085938 28.0625 72.296875 C 27.535156 71.503906 27.046875 70.691406 26.601562 69.851562 C 26.152344 69.015625 25.746094 68.15625 25.382812 67.277344 C 25.019531 66.398438 24.699219 65.503906 24.425781 64.597656 C 24.148438 63.6875 23.917969 62.765625 23.734375 61.832031 C 23.546875 60.902344 23.410156 59.964844 23.316406 59.015625 C 23.222656 58.070312 23.175781 57.125 23.175781 56.171875 C 23.175781 55.222656 23.222656 54.273438 23.316406 53.328125 C 23.410156 52.382812 23.546875 51.445312 23.734375 50.511719 C 23.917969 49.578125 24.148438 48.660156 24.425781 47.75 C 24.699219 46.839844 25.019531 45.945312 25.382812 45.066406 C 25.746094 44.191406 26.152344 43.332031 26.601562 42.492188 C 27.046875 41.65625 27.535156 40.839844 28.0625 40.050781 C 28.589844 39.261719 29.15625 38.496094 29.757812 37.761719 C 30.359375 37.027344 30.996094 36.324219 31.667969 35.652344 Z M 31.667969 35.652344 " fill-opacity="1" fill-rule="evenodd"/></svg>