<svg xmlns="http://www.w3.org/2000/svg" xmlns:xlink="http://www.w3.org/1999/xlink" width="150" zoomAndPan="magnify" viewBox="0 0 112.5 112.499997" height="150" preserveAspectRatio="xMidYMid meet" version="1.0"><path fill="#205375" d="M 91.863281 45.667969 C 91.90625 45.875 91.910156 46.085938 91.867188 46.292969 C 91.828125 46.503906 91.75 46.695312 91.632812 46.875 C 91.515625 47.050781 91.371094 47.199219 91.195312 47.320312 C 91.019531 47.4375 90.828125 47.519531 90.617188 47.5625 C 90.414062 47.597656 90.210938 47.59375 90.011719 47.546875 C 89.808594 47.5 89.625 47.417969 89.453125 47.296875 C 89.285156 47.175781 89.148438 47.027344 89.039062 46.855469 C 88.929688 46.679688 88.855469 46.488281 88.820312 46.285156 C 88.730469 45.722656 88.589844 45.171875 88.402344 44.632812 C 88.214844 44.097656 87.984375 43.578125 87.707031 43.082031 C 87.429688 42.582031 87.113281 42.113281 86.753906 41.667969 C 86.398438 41.226562 86.003906 40.816406 85.578125 40.441406 C 85.148438 40.0625 84.691406 39.726562 84.207031 39.429688 C 83.71875 39.132812 83.210938 38.878906 82.683594 38.671875 C 82.152344 38.460938 81.609375 38.296875 81.050781 38.183594 C 80.496094 38.066406 79.929688 38 79.363281 37.980469 C 79.175781 37.972656 78.992188 37.933594 78.820312 37.859375 C 78.648438 37.789062 78.492188 37.6875 78.355469 37.558594 C 78.21875 37.429688 78.109375 37.28125 78.023438 37.113281 C 77.941406 36.945312 77.890625 36.765625 77.871094 36.578125 C 77.851562 36.351562 77.878906 36.132812 77.953125 35.917969 C 78.03125 35.703125 78.148438 35.515625 78.304688 35.351562 C 78.460938 35.1875 78.644531 35.066406 78.855469 34.980469 C 79.066406 34.898438 79.285156 34.863281 79.511719 34.875 C 80.253906 34.902344 80.984375 34.992188 81.710938 35.144531 C 82.4375 35.296875 83.144531 35.507812 83.832031 35.78125 C 84.523438 36.054688 85.183594 36.382812 85.816406 36.769531 C 86.449219 37.15625 87.042969 37.59375 87.601562 38.082031 C 88.160156 38.570312 88.671875 39.101562 89.140625 39.675781 C 89.609375 40.25 90.023438 40.863281 90.386719 41.507812 C 90.75 42.15625 91.054688 42.828125 91.304688 43.523438 C 91.550781 44.222656 91.738281 44.9375 91.863281 45.667969 Z M 94.234375 30.234375 C 92.054688 28.371094 89.625 26.933594 86.941406 25.921875 C 84.257812 24.910156 81.480469 24.386719 78.613281 24.347656 C 78.394531 24.34375 78.1875 24.382812 77.984375 24.464844 C 77.785156 24.546875 77.605469 24.667969 77.457031 24.824219 C 77.304688 24.980469 77.191406 25.160156 77.117188 25.363281 C 77.039062 25.566406 77.007812 25.777344 77.019531 25.996094 L 77.019531 26.007812 C 77.03125 26.203125 77.078125 26.386719 77.160156 26.566406 C 77.238281 26.742188 77.351562 26.898438 77.488281 27.035156 C 77.628906 27.167969 77.789062 27.273438 77.96875 27.347656 C 78.148438 27.425781 78.335938 27.464844 78.53125 27.46875 C 81.039062 27.507812 83.464844 27.96875 85.808594 28.847656 C 88.15625 29.730469 90.289062 30.976562 92.203125 32.597656 C 94.085938 34.234375 95.636719 36.144531 96.855469 38.324219 C 98.070312 40.507812 98.882812 42.828125 99.285156 45.292969 C 99.316406 45.488281 99.382812 45.671875 99.480469 45.839844 C 99.582031 46.007812 99.710938 46.152344 99.867188 46.273438 C 100.019531 46.394531 100.191406 46.484375 100.382812 46.539062 C 100.570312 46.59375 100.761719 46.613281 100.957031 46.597656 L 100.964844 46.597656 C 101.179688 46.578125 101.382812 46.515625 101.574219 46.410156 C 101.761719 46.304688 101.925781 46.164062 102.054688 45.992188 C 102.1875 45.820312 102.28125 45.628906 102.332031 45.417969 C 102.382812 45.210938 102.390625 44.996094 102.355469 44.78125 C 101.890625 41.960938 100.964844 39.300781 99.570312 36.800781 C 98.175781 34.300781 96.398438 32.113281 94.238281 30.238281 Z M 111.949219 41.550781 C 111.800781 40.613281 111.613281 39.683594 111.382812 38.761719 C 111.15625 37.839844 110.886719 36.933594 110.578125 36.035156 C 110.269531 35.136719 109.921875 34.257812 109.535156 33.390625 C 109.148438 32.523438 108.722656 31.675781 108.261719 30.847656 C 107.800781 30.015625 107.304688 29.210938 106.769531 28.421875 C 106.238281 27.636719 105.671875 26.878906 105.074219 26.140625 C 104.476562 25.40625 103.84375 24.699219 103.183594 24.015625 C 102.523438 23.335938 101.832031 22.6875 101.113281 22.066406 C 100.394531 21.449219 99.648438 20.859375 98.878906 20.308594 C 98.109375 19.753906 97.316406 19.234375 96.5 18.75 C 95.683594 18.265625 94.847656 17.816406 93.992188 17.40625 C 93.136719 16.996094 92.265625 16.621094 91.378906 16.289062 C 90.488281 15.953125 89.589844 15.660156 88.675781 15.40625 C 87.761719 15.148438 86.835938 14.9375 85.90625 14.761719 C 84.972656 14.589844 84.03125 14.457031 83.089844 14.363281 C 82.144531 14.273438 81.195312 14.222656 80.25 14.214844 C 80.035156 14.214844 79.832031 14.253906 79.636719 14.335938 C 79.441406 14.417969 79.269531 14.535156 79.121094 14.6875 C 78.972656 14.839844 78.863281 15.015625 78.789062 15.214844 C 78.714844 15.414062 78.679688 15.617188 78.691406 15.828125 L 78.691406 15.839844 C 78.699219 16.035156 78.742188 16.222656 78.824219 16.402344 C 78.902344 16.582031 79.011719 16.742188 79.152344 16.878906 C 79.292969 17.019531 79.453125 17.128906 79.632812 17.203125 C 79.8125 17.28125 80 17.324219 80.199219 17.332031 C 81.996094 17.367188 83.777344 17.5625 85.542969 17.914062 C 87.304688 18.269531 89.023438 18.773438 90.699219 19.433594 C 92.371094 20.09375 93.972656 20.898438 95.503906 21.84375 C 97.03125 22.789062 98.46875 23.863281 99.804688 25.066406 C 102.210938 27.320312 104.191406 29.898438 105.746094 32.804688 C 107.300781 35.710938 108.34375 38.792969 108.878906 42.042969 C 108.914062 42.242188 108.980469 42.421875 109.082031 42.59375 C 109.1875 42.761719 109.316406 42.90625 109.476562 43.027344 C 109.632812 43.144531 109.808594 43.230469 110 43.285156 C 110.191406 43.335938 110.382812 43.351562 110.582031 43.328125 L 110.585938 43.328125 C 110.796875 43.308594 110.996094 43.246094 111.183594 43.140625 C 111.367188 43.039062 111.527344 42.902344 111.65625 42.734375 C 111.785156 42.566406 111.875 42.378906 111.925781 42.171875 C 111.976562 41.964844 111.988281 41.757812 111.953125 41.546875 Z M 82.523438 53.308594 L 82.523438 89.6875 C 82.523438 90.222656 82.46875 90.75 82.363281 91.273438 C 82.261719 91.796875 82.105469 92.308594 81.902344 92.800781 C 81.695312 93.292969 81.445312 93.761719 81.148438 94.207031 C 80.851562 94.648438 80.515625 95.058594 80.136719 95.4375 C 79.761719 95.816406 79.347656 96.152344 78.90625 96.449219 C 78.460938 96.746094 77.992188 96.996094 77.5 97.199219 C 77.007812 97.40625 76.5 97.558594 75.976562 97.664062 C 75.453125 97.769531 74.921875 97.820312 74.386719 97.824219 L 8.132812 97.824219 C 7.597656 97.820312 7.070312 97.769531 6.546875 97.664062 C 6.023438 97.558594 5.515625 97.40625 5.023438 97.199219 C 4.527344 96.996094 4.058594 96.746094 3.617188 96.449219 C 3.171875 96.152344 2.761719 95.816406 2.382812 95.4375 C 2.007812 95.058594 1.667969 94.648438 1.375 94.207031 C 1.078125 93.761719 0.824219 93.292969 0.621094 92.800781 C 0.417969 92.308594 0.261719 91.796875 0.15625 91.273438 C 0.0546875 90.75 0 90.222656 0 89.6875 L 0 53.308594 C 0 52.453125 0.136719 51.617188 0.398438 50.800781 C 0.664062 49.988281 1.050781 49.234375 1.554688 48.539062 C 2.054688 47.847656 2.652344 47.246094 3.347656 46.742188 C 4.039062 46.238281 4.792969 45.851562 5.605469 45.585938 L 38.738281 29.117188 C 38.621094 28.65625 38.558594 28.1875 38.558594 27.710938 C 38.558594 27.269531 38.605469 26.832031 38.707031 26.402344 C 38.804688 25.972656 38.953125 25.558594 39.144531 25.160156 C 39.339844 24.765625 39.578125 24.394531 39.855469 24.050781 C 40.136719 23.710938 40.449219 23.402344 40.800781 23.132812 C 41.148438 22.863281 41.527344 22.636719 41.925781 22.453125 C 42.328125 22.269531 42.746094 22.132812 43.179688 22.042969 C 43.613281 21.957031 44.050781 21.917969 44.492188 21.929688 C 44.933594 21.945312 45.367188 22.007812 45.792969 22.117188 C 46.222656 22.230469 46.632812 22.390625 47.023438 22.597656 C 47.414062 22.800781 47.773438 23.050781 48.109375 23.339844 C 48.441406 23.628906 48.738281 23.953125 49 24.308594 C 49.257812 24.667969 49.472656 25.050781 49.644531 25.457031 C 49.816406 25.863281 49.941406 26.285156 50.015625 26.722656 C 50.089844 27.15625 50.113281 27.59375 50.089844 28.035156 C 50.0625 28.476562 49.988281 28.910156 49.863281 29.332031 C 49.738281 29.757812 49.566406 30.160156 49.347656 30.546875 C 49.128906 30.929688 48.871094 31.285156 48.570312 31.609375 C 48.273438 31.933594 47.941406 32.222656 47.574219 32.46875 C 47.210938 32.71875 46.820312 32.921875 46.410156 33.082031 C 45.996094 33.242188 45.570312 33.351562 45.132812 33.414062 C 44.695312 33.476562 44.257812 33.484375 43.816406 33.445312 C 43.378906 33.40625 42.949219 33.320312 42.527344 33.179688 C 42.109375 33.042969 41.710938 32.859375 41.332031 32.628906 C 40.953125 32.402344 40.609375 32.132812 40.292969 31.824219 L 13.421875 45.175781 L 74.386719 45.175781 C 74.917969 45.175781 75.449219 45.226562 75.972656 45.332031 C 76.496094 45.4375 77.003906 45.589844 77.496094 45.796875 C 77.992188 46 78.460938 46.25 78.902344 46.546875 C 79.347656 46.84375 79.757812 47.183594 80.136719 47.558594 C 80.515625 47.9375 80.851562 48.347656 81.148438 48.792969 C 81.445312 49.234375 81.695312 49.703125 81.902344 50.199219 C 82.105469 50.691406 82.261719 51.199219 82.363281 51.722656 C 82.46875 52.246094 82.523438 52.777344 82.523438 53.308594 Z M 41.671875 27.710938 C 41.671875 28.0625 41.738281 28.398438 41.875 28.722656 C 42.007812 29.046875 42.199219 29.332031 42.449219 29.582031 C 42.695312 29.828125 42.980469 30.019531 43.304688 30.15625 C 43.628906 30.289062 43.96875 30.355469 44.320312 30.355469 C 44.667969 30.355469 45.007812 30.289062 45.332031 30.15625 C 45.65625 30.019531 45.941406 29.828125 46.191406 29.582031 C 46.4375 29.332031 46.628906 29.046875 46.761719 28.722656 C 46.898438 28.398438 46.964844 28.0625 46.964844 27.710938 C 46.964844 27.359375 46.898438 27.023438 46.761719 26.699219 C 46.628906 26.375 46.4375 26.085938 46.1875 25.839844 C 45.941406 25.589844 45.652344 25.398438 45.328125 25.265625 C 45.003906 25.132812 44.667969 25.066406 44.316406 25.066406 C 43.964844 25.066406 43.628906 25.132812 43.304688 25.265625 C 42.980469 25.402344 42.695312 25.59375 42.449219 25.839844 C 42.199219 26.089844 42.007812 26.375 41.875 26.699219 C 41.738281 27.023438 41.671875 27.359375 41.671875 27.710938 Z M 79.410156 53.308594 C 79.40625 52.980469 79.375 52.652344 79.3125 52.332031 C 79.246094 52.007812 79.152344 51.695312 79.023438 51.390625 C 78.898438 51.085938 78.742188 50.796875 78.558594 50.523438 C 78.378906 50.25 78.167969 49.996094 77.9375 49.761719 C 77.703125 49.527344 77.449219 49.320312 77.175781 49.136719 C 76.902344 48.953125 76.613281 48.800781 76.308594 48.671875 C 76.003906 48.546875 75.691406 48.453125 75.367188 48.386719 C 75.042969 48.324219 74.71875 48.289062 74.386719 48.289062 L 8.132812 48.289062 C 7.804688 48.289062 7.476562 48.324219 7.152344 48.386719 C 6.832031 48.453125 6.515625 48.546875 6.214844 48.671875 C 5.910156 48.800781 5.621094 48.953125 5.347656 49.136719 C 5.070312 49.320312 4.820312 49.527344 4.585938 49.761719 C 4.351562 49.996094 4.144531 50.25 3.960938 50.523438 C 3.777344 50.796875 3.625 51.085938 3.496094 51.390625 C 3.371094 51.695312 3.277344 52.007812 3.210938 52.332031 C 3.148438 52.652344 3.113281 52.980469 3.113281 53.308594 L 3.113281 89.6875 C 3.113281 90.019531 3.148438 90.34375 3.210938 90.667969 C 3.277344 90.992188 3.371094 91.304688 3.496094 91.609375 C 3.625 91.914062 3.777344 92.203125 3.960938 92.476562 C 4.144531 92.75 4.351562 93.003906 4.585938 93.238281 C 4.820312 93.46875 5.070312 93.675781 5.347656 93.859375 C 5.621094 94.042969 5.910156 94.199219 6.214844 94.324219 C 6.515625 94.453125 6.832031 94.546875 7.152344 94.609375 C 7.476562 94.675781 7.804688 94.707031 8.132812 94.707031 L 74.386719 94.707031 C 74.714844 94.707031 75.042969 94.675781 75.363281 94.613281 C 75.6875 94.546875 76 94.453125 76.304688 94.324219 C 76.609375 94.199219 76.898438 94.046875 77.175781 93.863281 C 77.449219 93.679688 77.703125 93.472656 77.933594 93.238281 C 78.167969 93.003906 78.375 92.75 78.558594 92.476562 C 78.742188 92.203125 78.898438 91.914062 79.023438 91.609375 C 79.152344 91.304688 79.246094 90.992188 79.3125 90.667969 C 79.375 90.34375 79.40625 90.019531 79.410156 89.6875 Z M 38.011719 71.777344 C 38.011719 72.644531 37.925781 73.5 37.757812 74.347656 C 37.589844 75.195312 37.339844 76.019531 37.007812 76.816406 C 36.675781 77.613281 36.273438 78.375 35.792969 79.09375 C 35.3125 79.8125 34.765625 80.476562 34.15625 81.085938 C 33.542969 81.699219 32.878906 82.246094 32.160156 82.722656 C 31.441406 83.203125 30.683594 83.609375 29.882812 83.941406 C 29.085938 84.273438 28.261719 84.519531 27.414062 84.691406 C 26.566406 84.859375 25.710938 84.941406 24.847656 84.941406 C 23.980469 84.941406 23.125 84.859375 22.277344 84.691406 C 21.429688 84.519531 20.605469 84.273438 19.808594 83.941406 C 19.007812 83.609375 18.25 83.203125 17.53125 82.722656 C 16.8125 82.246094 16.148438 81.699219 15.539062 81.085938 C 14.925781 80.476562 14.378906 79.8125 13.902344 79.09375 C 13.421875 78.375 13.015625 77.613281 12.683594 76.816406 C 12.351562 76.019531 12.101562 75.195312 11.933594 74.347656 C 11.765625 73.5 11.683594 72.644531 11.683594 71.777344 C 11.683594 70.914062 11.765625 70.058594 11.933594 69.210938 C 12.101562 68.363281 12.351562 67.539062 12.683594 66.742188 C 13.015625 65.941406 13.421875 65.183594 13.902344 64.464844 C 14.378906 63.746094 14.925781 63.082031 15.539062 62.46875 C 16.148438 61.859375 16.8125 61.3125 17.53125 60.832031 C 18.25 60.351562 19.007812 59.949219 19.808594 59.617188 C 20.605469 59.285156 21.429688 59.035156 22.277344 58.867188 C 23.125 58.699219 23.980469 58.613281 24.847656 58.613281 C 25.710938 58.617188 26.566406 58.703125 27.414062 58.871094 C 28.261719 59.039062 29.082031 59.289062 29.878906 59.621094 C 30.679688 59.953125 31.4375 60.359375 32.15625 60.839844 C 32.875 61.320312 33.539062 61.863281 34.148438 62.476562 C 34.761719 63.085938 35.304688 63.75 35.785156 64.46875 C 36.265625 65.1875 36.671875 65.945312 37.003906 66.742188 C 37.335938 67.542969 37.585938 68.363281 37.753906 69.210938 C 37.921875 70.058594 38.007812 70.914062 38.011719 71.777344 Z M 34.894531 71.777344 C 34.894531 71.117188 34.832031 70.464844 34.703125 69.816406 C 34.574219 69.171875 34.382812 68.542969 34.132812 67.933594 C 33.878906 67.324219 33.570312 66.742188 33.203125 66.195312 C 32.835938 65.648438 32.417969 65.140625 31.953125 64.671875 C 31.484375 64.207031 30.976562 63.789062 30.429688 63.421875 C 29.878906 63.054688 29.300781 62.746094 28.691406 62.492188 C 28.082031 62.242188 27.453125 62.050781 26.808594 61.921875 C 26.160156 61.792969 25.507812 61.730469 24.847656 61.730469 C 24.1875 61.730469 23.53125 61.792969 22.886719 61.921875 C 22.238281 62.050781 21.609375 62.242188 21 62.492188 C 20.390625 62.746094 19.8125 63.054688 19.261719 63.421875 C 18.714844 63.789062 18.207031 64.207031 17.738281 64.671875 C 17.273438 65.140625 16.855469 65.648438 16.488281 66.195312 C 16.121094 66.742188 15.8125 67.324219 15.5625 67.933594 C 15.308594 68.542969 15.117188 69.171875 14.988281 69.816406 C 14.859375 70.464844 14.796875 71.117188 14.796875 71.777344 C 14.796875 72.4375 14.859375 73.09375 14.988281 73.738281 C 15.117188 74.386719 15.308594 75.015625 15.5625 75.625 C 15.8125 76.234375 16.121094 76.8125 16.488281 77.363281 C 16.855469 77.910156 17.273438 78.417969 17.738281 78.886719 C 18.207031 79.351562 18.714844 79.769531 19.261719 80.136719 C 19.8125 80.5 20.390625 80.8125 21 81.0625 C 21.609375 81.316406 22.238281 81.507812 22.886719 81.636719 C 23.53125 81.765625 24.1875 81.828125 24.847656 81.828125 C 25.503906 81.828125 26.160156 81.761719 26.804688 81.632812 C 27.453125 81.503906 28.082031 81.3125 28.691406 81.0625 C 29.300781 80.808594 29.878906 80.5 30.425781 80.132812 C 30.976562 79.765625 31.484375 79.347656 31.949219 78.882812 C 32.414062 78.414062 32.832031 77.90625 33.199219 77.359375 C 33.566406 76.8125 33.875 76.234375 34.128906 75.625 C 34.378906 75.015625 34.570312 74.386719 34.699219 73.738281 C 34.832031 73.09375 34.894531 72.4375 34.894531 71.777344 Z M 69.691406 60.199219 L 46.429688 60.199219 C 46.222656 60.199219 46.023438 60.242188 45.832031 60.320312 C 45.644531 60.398438 45.472656 60.511719 45.328125 60.65625 C 45.183594 60.804688 45.070312 60.972656 44.992188 61.160156 C 44.910156 61.351562 44.871094 61.550781 44.871094 61.757812 C 44.871094 61.964844 44.910156 62.164062 44.992188 62.355469 C 45.070312 62.542969 45.183594 62.710938 45.328125 62.859375 C 45.472656 63.003906 45.644531 63.117188 45.832031 63.195312 C 46.023438 63.273438 46.222656 63.316406 46.429688 63.316406 L 69.691406 63.316406 C 69.898438 63.316406 70.09375 63.273438 70.285156 63.195312 C 70.476562 63.117188 70.644531 63.003906 70.792969 62.859375 C 70.9375 62.710938 71.050781 62.542969 71.128906 62.355469 C 71.207031 62.164062 71.246094 61.964844 71.246094 61.757812 C 71.246094 61.550781 71.207031 61.351562 71.128906 61.160156 C 71.050781 60.972656 70.9375 60.804688 70.792969 60.65625 C 70.644531 60.511719 70.476562 60.398438 70.285156 60.320312 C 70.09375 60.242188 69.898438 60.199219 69.691406 60.199219 Z M 69.691406 69.804688 L 46.429688 69.804688 C 46.222656 69.804688 46.023438 69.84375 45.832031 69.925781 C 45.644531 70.003906 45.472656 70.117188 45.328125 70.261719 C 45.183594 70.40625 45.070312 70.574219 44.992188 70.765625 C 44.910156 70.957031 44.871094 71.15625 44.871094 71.363281 C 44.871094 71.570312 44.910156 71.769531 44.992188 71.957031 C 45.070312 72.148438 45.183594 72.316406 45.328125 72.464844 C 45.472656 72.609375 45.644531 72.722656 45.832031 72.800781 C 46.023438 72.878906 46.222656 72.917969 46.429688 72.917969 L 69.691406 72.917969 C 69.898438 72.917969 70.097656 72.878906 70.289062 72.800781 C 70.476562 72.722656 70.648438 72.609375 70.792969 72.460938 C 70.941406 72.316406 71.050781 72.148438 71.132812 71.957031 C 71.210938 71.765625 71.25 71.566406 71.25 71.359375 C 71.25 71.152344 71.210938 70.953125 71.132812 70.761719 C 71.050781 70.570312 70.941406 70.402344 70.792969 70.257812 C 70.648438 70.109375 70.476562 70 70.289062 69.917969 C 70.097656 69.839844 69.898438 69.800781 69.691406 69.800781 Z M 69.691406 79.410156 L 46.429688 79.410156 C 46.222656 79.410156 46.023438 79.449219 45.832031 79.527344 C 45.644531 79.609375 45.472656 79.71875 45.328125 79.867188 C 45.183594 80.011719 45.070312 80.179688 44.992188 80.371094 C 44.910156 80.5625 44.871094 80.761719 44.871094 80.96875 C 44.871094 81.175781 44.910156 81.371094 44.992188 81.5625 C 45.070312 81.753906 45.183594 81.921875 45.328125 82.070312 C 45.472656 82.214844 45.644531 82.328125 45.832031 82.40625 C 46.023438 82.484375 46.222656 82.523438 46.429688 82.523438 L 69.691406 82.523438 C 69.898438 82.523438 70.097656 82.484375 70.289062 82.40625 C 70.480469 82.328125 70.648438 82.214844 70.792969 82.066406 C 70.941406 81.921875 71.050781 81.753906 71.132812 81.5625 C 71.210938 81.371094 71.25 81.171875 71.25 80.964844 C 71.25 80.757812 71.210938 80.558594 71.132812 80.367188 C 71.050781 80.175781 70.941406 80.007812 70.792969 79.859375 C 70.648438 79.714844 70.480469 79.601562 70.289062 79.523438 C 70.097656 79.445312 69.898438 79.402344 69.691406 79.402344 Z M 69.691406 79.410156 " fill-opacity="1" fill-rule="nonzero"/></svg>