<svg xmlns="http://www.w3.org/2000/svg" xmlns:xlink="http://www.w3.org/1999/xlink" width="150" zoomAndPan="magnify" viewBox="0 0 112.5 112.499997" height="150" preserveAspectRatio="xMidYMid meet" version="1.0"><defs><clipPath id="715ceacf0c"><path d="M 0 0 L 112.003906 0 L 112.003906 112.003906 L 0 112.003906 Z M 0 0 " clip-rule="nonzero"/></clipPath></defs><g clip-path="url(#715ceacf0c)"><path fill="#205375" d="M 110.539062 72.019531 C 108.121094 67.828125 103.335938 65.839844 98.835938 66.757812 C 99.667969 63.96875 99.402344 60.855469 97.835938 58.140625 C 94.808594 52.902344 88.085938 51.101562 82.851562 54.125 L 82.417969 54.371094 C 81.539062 49.285156 77.667969 45.207031 72.683594 44.03125 L 86.34375 26.339844 C 87.25 25.164062 87.40625 23.613281 86.753906 22.28125 C 86.101562 20.953125 84.777344 20.128906 83.292969 20.128906 L 75.882812 20.128906 L 75.882812 11.652344 C 75.882812 10.773438 75.171875 10.066406 74.292969 10.066406 L 65.144531 10.066406 L 65.144531 1.585938 C 65.144531 0.710938 64.433594 0 63.558594 0 L 42.082031 0 C 41.207031 0 40.496094 0.710938 40.496094 1.585938 L 40.496094 10.066406 L 31.34375 10.066406 C 30.46875 10.066406 29.757812 10.773438 29.757812 11.652344 L 29.757812 20.128906 L 18.902344 20.128906 L 14.757812 6.683594 C 14.554688 6.015625 13.9375 5.5625 13.242188 5.5625 L 1.59375 5.5625 C 0.71875 5.5625 0.0078125 6.273438 0.0078125 7.152344 C 0.0078125 8.027344 0.71875 8.738281 1.59375 8.738281 L 12.070312 8.738281 L 16.203125 22.144531 C 16.210938 22.171875 16.21875 22.199219 16.226562 22.222656 L 23.40625 45.511719 L 23.40625 67.878906 C 23.40625 68.753906 24.117188 69.464844 24.992188 69.464844 L 28.453125 69.464844 C 32.546875 69.464844 35.894531 66.542969 36.789062 62.199219 L 39.933594 46.859375 L 61.265625 46.859375 C 58.550781 49.222656 56.832031 52.699219 56.832031 56.574219 C 56.832031 60.453125 58.558594 64.050781 61.460938 66.472656 L 42.253906 77.5625 L 42.257812 77.566406 C 38.890625 79.441406 36.609375 83.035156 36.609375 87.152344 C 36.609375 87.199219 36.613281 87.242188 36.613281 87.285156 L 29.417969 91.441406 L 29.421875 91.445312 C 26.054688 93.320312 23.773438 96.914062 23.773438 101.03125 C 23.773438 107.082031 28.695312 112.003906 34.742188 112.003906 C 36.796875 112.003906 38.71875 111.433594 40.367188 110.445312 L 40.367188 110.453125 L 50.011719 104.882812 C 51.574219 109.039062 55.589844 112.003906 60.28125 112.003906 C 62.335938 112.003906 64.261719 111.433594 65.90625 110.445312 L 65.90625 110.453125 L 106.519531 87.003906 C 111.761719 83.980469 113.5625 77.257812 110.539062 72.019531 Z M 84.4375 56.875 C 87.6875 54.996094 91.742188 55.734375 94.148438 58.433594 L 84.453125 64.03125 C 83.691406 64.472656 83.433594 65.441406 83.871094 66.199219 C 84.164062 66.710938 84.699219 66.996094 85.246094 66.996094 C 85.515625 66.996094 85.789062 66.925781 86.039062 66.78125 L 95.738281 61.183594 C 96.871094 64.617188 95.480469 68.5 92.230469 70.375 L 58.15625 90.046875 C 58.410156 89.125 58.546875 88.15625 58.546875 87.152344 C 58.546875 82.066406 55.066406 77.78125 50.363281 76.542969 Z M 69.722656 59.8125 C 67.9375 59.8125 66.484375 58.359375 66.484375 56.574219 C 66.484375 54.789062 67.9375 53.335938 69.722656 53.335938 C 71.507812 53.335938 72.960938 54.789062 72.960938 56.574219 C 72.960938 58.359375 71.507812 59.8125 69.722656 59.8125 Z M 72.707031 20.128906 L 54.40625 20.128906 L 54.40625 13.238281 L 72.707031 13.238281 Z M 43.667969 3.175781 L 61.96875 3.175781 L 61.96875 10.066406 L 43.667969 10.066406 Z M 32.933594 13.238281 L 51.234375 13.238281 L 51.234375 20.128906 L 32.933594 20.128906 Z M 83.292969 23.304688 C 83.664062 23.304688 83.835938 23.539062 83.90625 23.683594 C 83.976562 23.824219 84.058594 24.105469 83.832031 24.398438 L 68.941406 43.683594 L 26.164062 43.683594 L 19.882812 23.304688 Z M 33.679688 61.5625 C 33.097656 64.390625 30.996094 66.289062 28.453125 66.289062 L 26.578125 66.289062 L 26.578125 46.859375 L 36.695312 46.859375 Z M 60.007812 56.574219 C 60.007812 51.21875 64.363281 46.859375 69.722656 46.859375 C 74.921875 46.859375 79.179688 50.960938 79.425781 56.101562 L 75.949219 58.109375 C 76.070312 57.617188 76.132812 57.101562 76.132812 56.574219 C 76.132812 53.039062 73.257812 50.160156 69.722656 50.160156 C 66.1875 50.160156 63.308594 53.039062 63.308594 56.574219 C 63.308594 59.492188 65.269531 61.957031 67.941406 62.734375 L 64.460938 64.738281 C 61.695312 62.957031 60.007812 59.902344 60.007812 56.574219 Z M 47.578125 79.359375 C 51.878906 79.359375 55.375 82.855469 55.375 87.152344 C 55.375 91.453125 51.878906 94.949219 47.578125 94.949219 C 43.28125 94.949219 39.785156 91.453125 39.785156 87.152344 C 39.785156 82.855469 43.28125 79.359375 47.578125 79.359375 Z M 26.945312 101.03125 C 26.945312 96.734375 30.445312 93.238281 34.742188 93.238281 C 39.039062 93.238281 42.539062 96.734375 42.539062 101.03125 C 42.539062 105.332031 39.039062 108.828125 34.742188 108.828125 C 30.445312 108.828125 26.945312 105.332031 26.945312 101.03125 Z M 45.320312 103.925781 C 45.574219 103.003906 45.710938 102.035156 45.710938 101.03125 C 45.710938 99.933594 45.546875 98.871094 45.246094 97.871094 C 45.996094 98.035156 46.777344 98.121094 47.578125 98.121094 C 48.328125 98.121094 49.058594 98.046875 49.765625 97.902344 C 49.46875 98.90625 49.3125 99.960938 49.3125 101.03125 C 49.3125 101.226562 49.320312 101.421875 49.328125 101.613281 Z M 52.488281 101.03125 C 52.488281 99.105469 53.191406 97.269531 54.472656 95.839844 L 58.691406 93.402344 C 59.214844 93.296875 59.746094 93.238281 60.28125 93.238281 C 64.582031 93.238281 68.078125 96.734375 68.078125 101.03125 C 68.078125 105.332031 64.582031 108.828125 60.28125 108.828125 C 55.984375 108.828125 52.488281 105.332031 52.488281 101.03125 Z M 104.933594 84.253906 L 70.863281 103.925781 C 71.113281 103.003906 71.253906 102.035156 71.253906 101.03125 C 71.253906 96.136719 68.027344 91.980469 63.59375 90.574219 L 93.816406 73.125 C 94.6875 72.621094 95.460938 72.015625 96.136719 71.332031 L 97.140625 70.753906 C 100.863281 68.601562 105.640625 69.882812 107.789062 73.605469 C 109.9375 77.328125 108.65625 82.105469 104.933594 84.253906 Z M 104.257812 75.644531 C 104.695312 76.402344 104.4375 77.375 103.675781 77.8125 L 78.007812 92.632812 C 77.753906 92.777344 77.484375 92.847656 77.214844 92.847656 C 76.664062 92.847656 76.132812 92.5625 75.839844 92.050781 C 75.398438 91.292969 75.660156 90.324219 76.417969 89.882812 L 102.089844 75.0625 C 102.847656 74.625 103.820312 74.886719 104.257812 75.644531 Z M 63.132812 78.171875 C 62.695312 77.414062 62.957031 76.445312 63.714844 76.003906 L 78.019531 67.746094 C 78.78125 67.308594 79.75 67.566406 80.1875 68.328125 C 80.628906 69.085938 80.367188 70.054688 79.609375 70.496094 L 65.300781 78.753906 C 65.050781 78.898438 64.777344 78.96875 64.511719 78.96875 C 63.960938 78.96875 63.425781 78.683594 63.132812 78.171875 Z M 63.132812 78.171875 " fill-opacity="1" fill-rule="nonzero"/></g></svg>