<svg xmlns="http://www.w3.org/2000/svg" xmlns:xlink="http://www.w3.org/1999/xlink" width="150" zoomAndPan="magnify" viewBox="0 0 112.5 112.499997" height="150" preserveAspectRatio="xMidYMid meet" version="1.0"><defs><clipPath id="15a38278ad"><path d="M 0 19.800781 L 112.003906 19.800781 L 112.003906 92.226562 L 0 92.226562 Z M 0 19.800781 " clip-rule="nonzero"/></clipPath></defs><g clip-path="url(#15a38278ad)"><path fill="#205375" d="M 102.945312 71.140625 C 102.484375 71.414062 102.027344 71.78125 101.480469 72.054688 C 100.65625 72.421875 99.832031 72.605469 98.917969 72.605469 C 98.003906 72.605469 97.179688 72.421875 96.449219 72.148438 L 95.441406 71.597656 L 62.039062 52.929688 L 80.800781 44.878906 C 77.964844 41.308594 73.386719 42.132812 68.445312 43.230469 L 50.875 47.257812 L 37.882812 40.667969 C 35.503906 39.480469 30.5625 39.386719 29.371094 41.859375 C 28.089844 44.238281 31.019531 48.171875 33.398438 49.363281 L 46.394531 56.042969 L 53.53125 72.605469 C 55.542969 77.179688 57.648438 81.386719 62.132812 81.574219 L 57.648438 61.714844 L 76.773438 70.59375 L 77.871094 71.050781 C 79.0625 71.78125 79.882812 73.246094 79.882812 74.800781 C 79.882812 76.445312 78.96875 77.914062 77.597656 78.644531 C 76.773438 78.917969 75.859375 79.101562 74.941406 79.195312 C 74.027344 79.285156 73.113281 79.375 72.199219 79.375 C 70.917969 79.375 69.636719 79.195312 68.355469 79.007812 C 65.058594 86.695312 57.464844 92.1875 48.496094 92.1875 C 37.882812 92.1875 29.097656 84.410156 27.359375 74.253906 C 25.53125 74.800781 23.515625 75.074219 21.503906 75.074219 C 9.605469 75.074219 0 65.46875 0 53.664062 C 0 41.765625 9.605469 32.160156 21.503906 32.160156 C 24.796875 32.160156 28 32.984375 30.835938 34.355469 C 35.136719 25.753906 44.011719 19.804688 54.261719 19.804688 C 65.152344 19.804688 74.484375 26.484375 78.421875 35.910156 C 81.898438 33.53125 86.015625 32.160156 90.5 32.160156 C 102.394531 32.160156 112.003906 41.765625 112.003906 53.664062 C 112.003906 60.25 108.984375 66.199219 104.316406 70.132812 C 103.859375 70.410156 103.402344 70.773438 102.945312 71.140625 " fill-opacity="1" fill-rule="evenodd"/></g></svg>