<svg xmlns="http://www.w3.org/2000/svg" xmlns:xlink="http://www.w3.org/1999/xlink" width="150" zoomAndPan="magnify" viewBox="0 0 112.5 112.499997" height="150" preserveAspectRatio="xMidYMid meet" version="1.0"><path fill="#205375" d="M 49.097656 61.957031 C 49.097656 61.964844 49.097656 61.964844 49.097656 61.964844 C 48.578125 62.398438 48.011719 62.796875 47.375 63.148438 C 47.023438 63.34375 46.660156 63.519531 46.308594 63.660156 C 45.019531 59.230469 42.242188 55.550781 37.980469 52.621094 C 36.824219 51.820312 36.984375 50.097656 38.261719 49.535156 C 39.71875 48.898438 41.738281 48.582031 44.078125 49.773438 C 48.789062 52.179688 49.089844 61.59375 49.097656 61.957031 Z M 49.097656 61.957031 " fill-opacity="1" fill-rule="nonzero"/><path fill="#efefef" d="M 61.625 103.972656 C 61.671875 105.015625 60.867188 105.90625 59.816406 105.949219 C 50.445312 106.363281 43.742188 102.269531 39.886719 93.773438 C 39.460938 92.820312 39.886719 91.691406 40.839844 91.257812 C 41.050781 91.160156 41.289062 91.101562 41.527344 91.089844 C 42.3125 91.054688 43.027344 91.488281 43.351562 92.203125 C 46.546875 99.242188 51.875 102.5 59.648438 102.15625 C 60.152344 102.136719 60.636719 102.304688 61.015625 102.648438 C 61.386719 102.992188 61.609375 103.460938 61.625 103.972656 Z M 61.625 103.972656 " fill-opacity="1" fill-rule="nonzero"/><path fill="#205375" d="M 79.960938 62.46875 C 81.214844 64.621094 82.371094 67.152344 83.410156 70.128906 C 89.050781 86.222656 82.394531 99.128906 77.417969 101.441406 C 75.453125 102.359375 73.632812 102.535156 72.171875 102.429688 C 70.238281 102.277344 68.3125 103.339844 67.40625 105.050781 C 66.726562 106.355469 65.605469 107.792969 63.769531 108.976562 C 59.171875 111.949219 44.703125 110.707031 34.089844 97.355469 C 22.882812 83.265625 25.75 73.390625 30.851562 68.265625 C 35.625 63.484375 41.210938 65.769531 46.308594 63.660156 C 46.660156 63.519531 47.023438 63.34375 47.375 63.148438 C 48.011719 62.796875 48.578125 62.398438 49.097656 61.964844 C 49.097656 61.964844 49.097656 61.964844 49.097656 61.957031 C 53.015625 58.675781 54.292969 53.292969 60.515625 51.890625 C 62.710938 51.394531 65.183594 51.324219 67.722656 51.996094 C 71.921875 53.070312 76.308594 56.125 79.960938 62.46875 Z M 59.816406 105.949219 C 60.867188 105.90625 61.671875 105.015625 61.625 103.972656 C 61.609375 103.460938 61.386719 102.992188 61.015625 102.648438 C 60.636719 102.304688 60.152344 102.136719 59.648438 102.15625 C 51.875 102.5 46.546875 99.242188 43.351562 92.203125 C 43.027344 91.488281 42.3125 91.054688 41.527344 91.089844 C 41.289062 91.101562 41.050781 91.160156 40.839844 91.257812 C 39.886719 91.691406 39.460938 92.820312 39.886719 93.773438 C 43.742188 102.269531 50.445312 106.363281 59.816406 105.949219 Z M 59.816406 105.949219 " fill-opacity="1" fill-rule="nonzero"/><path fill="#205375" d="M 26.351562 64.542969 C 25.863281 64.542969 25.46875 64.148438 25.46875 63.660156 L 25.46875 16.886719 C 25.46875 16.402344 25.863281 16.003906 26.351562 16.003906 C 26.839844 16.003906 27.234375 16.402344 27.234375 16.886719 L 27.234375 63.660156 C 27.234375 64.148438 26.839844 64.542969 26.351562 64.542969 Z M 26.351562 64.542969 " fill-opacity="1" fill-rule="nonzero"/><path fill="#205375" d="M 26.351562 9.785156 C 25.863281 9.785156 25.46875 9.390625 25.46875 8.902344 L 25.46875 0.898438 C 25.46875 0.414062 25.863281 0.015625 26.351562 0.015625 C 26.839844 0.015625 27.234375 0.414062 27.234375 0.898438 L 27.234375 8.902344 C 27.234375 9.390625 26.839844 9.785156 26.351562 9.785156 Z M 26.351562 9.785156 " fill-opacity="1" fill-rule="nonzero"/><path fill="#205375" d="M 38.675781 62.210938 C 38.1875 62.210938 37.792969 61.816406 37.792969 61.332031 L 37.792969 57.015625 C 37.792969 56.527344 38.1875 56.132812 38.675781 56.132812 C 39.164062 56.132812 39.558594 56.527344 39.558594 57.015625 L 39.558594 61.332031 C 39.558594 61.816406 39.164062 62.210938 38.675781 62.210938 Z M 38.675781 62.210938 " fill-opacity="1" fill-rule="nonzero"/><path fill="#205375" d="M 38.675781 46.867188 C 38.1875 46.867188 37.792969 46.472656 37.792969 45.988281 L 37.792969 5.566406 C 37.792969 5.082031 38.1875 4.683594 38.675781 4.683594 C 39.164062 4.683594 39.558594 5.082031 39.558594 5.566406 L 39.558594 45.988281 C 39.558594 46.472656 39.164062 46.867188 38.675781 46.867188 Z M 38.675781 46.867188 " fill-opacity="1" fill-rule="nonzero"/><path fill="#205375" d="M 54.796875 49.851562 C 54.308594 49.851562 53.914062 49.457031 53.914062 48.96875 L 53.914062 21.835938 C 53.914062 21.351562 54.308594 20.953125 54.796875 20.953125 C 55.285156 20.953125 55.679688 21.351562 55.679688 21.835938 L 55.679688 48.96875 C 55.679688 49.457031 55.285156 49.851562 54.796875 49.851562 Z M 54.796875 49.851562 " fill-opacity="1" fill-rule="nonzero"/><path fill="#205375" d="M 54.796875 15.0625 C 54.308594 15.0625 53.914062 14.664062 53.914062 14.179688 L 53.914062 5.566406 C 53.914062 5.082031 54.308594 4.683594 54.796875 4.683594 C 55.285156 4.683594 55.679688 5.082031 55.679688 5.566406 L 55.679688 14.179688 C 55.679688 14.664062 55.285156 15.0625 54.796875 15.0625 Z M 54.796875 15.0625 " fill-opacity="1" fill-rule="nonzero"/><path fill="#205375" d="M 67.722656 61.59375 C 67.234375 61.59375 66.839844 61.199219 66.839844 60.710938 L 66.839844 5.566406 C 66.839844 5.082031 67.234375 4.683594 67.722656 4.683594 C 68.210938 4.683594 68.605469 5.082031 68.605469 5.566406 L 68.605469 60.710938 C 68.605469 61.199219 68.210938 61.59375 67.722656 61.59375 Z M 67.722656 61.59375 " fill-opacity="1" fill-rule="nonzero"/><path fill="#205375" d="M 79.960938 79.285156 C 79.472656 79.285156 79.078125 78.890625 79.078125 78.402344 L 79.078125 22.765625 C 79.078125 22.277344 79.472656 21.882812 79.960938 21.882812 C 80.449219 21.882812 80.84375 22.277344 80.84375 22.765625 L 80.84375 78.402344 C 80.84375 78.890625 80.449219 79.285156 79.960938 79.285156 Z M 79.960938 79.285156 " fill-opacity="1" fill-rule="nonzero"/><path fill="#205375" d="M 79.960938 17.769531 C 79.472656 17.769531 79.078125 17.375 79.078125 16.886719 L 79.078125 7.730469 C 79.078125 7.242188 79.472656 6.847656 79.960938 6.847656 C 80.449219 6.847656 80.84375 7.242188 80.84375 7.730469 L 80.84375 16.886719 C 80.84375 17.375 80.449219 17.769531 79.960938 17.769531 Z M 79.960938 17.769531 " fill-opacity="1" fill-rule="nonzero"/></svg>